<?xml version="1.0" encoding="UTF-8"?>
<svg xmlns="http://www.w3.org/2000/svg" xmlns:xlink="http://www.w3.org/1999/xlink" width="360.16pt" height="134.9pt" viewBox="0 0 360.16 134.9" version="1.1">
<defs>
<clipPath id="clip1">
  <path d="M 117 109 L 138 109 L 138 134.898438 L 117 134.898438 Z M 117 109 "/>
</clipPath>
<clipPath id="clip2">
  <path d="M 311 30 L 360.160156 30 L 360.160156 61 L 311 61 Z M 311 30 "/>
</clipPath>
</defs>
<g id="surface1">
<path style=" stroke:none;fill-rule:nonzero;fill:rgb(25.498962%,25.498962%,25.099182%);fill-opacity:1;" d="M 13.667969 98.804688 C 13.882813 98.589844 14.65625 96.910156 15.125 95.972656 C 15.125 95.972656 15.421875 94.171875 16.414063 94.429688 C 16.414063 94.429688 17.441406 94.210938 16.457031 97.042969 C 16.457031 97.042969 13.367188 102.234375 8.945313 108.628906 C 8.945313 108.628906 5.511719 113.433594 3.800781 118.371094 C 3.800781 118.371094 1.480469 124.804688 3.285156 124.675781 C 3.285156 124.675781 3.648438 124.609375 4.140625 124.160156 C 5.195313 123.199219 6.890625 121.453125 7.273438 121.714844 C 7.273438 121.714844 7.789063 122.015625 7.1875 122.65625 C 7.1875 122.65625 4.527344 125.621094 3.367188 126.21875 C 3.367188 126.21875 1.480469 127.722656 0.921875 125.148438 C 0.921875 125.148438 -0.320313 122.484375 5.257813 111.71875 C 5.257813 111.71875 9.417969 104.636719 10.535156 103.3125 "/>
<path style=" stroke:none;fill-rule:nonzero;fill:rgb(25.498962%,25.498962%,25.099182%);fill-opacity:1;" d="M 18.6875 110.175781 C 17.316406 109.746094 14.480469 111.585938 14.480469 111.585938 C 13.28125 112.191406 12.035156 113.5625 12.035156 113.5625 C 10.921875 114.378906 9.203125 116.695313 9.203125 116.695313 L 8.605469 117.554688 C 8.003906 117.554688 7.488281 118.28125 7.488281 118.28125 L 7.40625 121.074219 C 6.113281 122.53125 7.789063 123.085938 7.789063 123.085938 C 9.03125 124.847656 10.449219 124.933594 10.449219 124.933594 C 13.367188 125.105469 15.640625 123.554688 15.640625 123.554688 C 16.757813 122.789063 15.429688 122.789063 15.429688 122.789063 C 14.910156 122.742188 13.148438 123.128906 13.148438 123.128906 C 9.71875 123.730469 9.503906 121.882813 9.503906 121.882813 C 9.03125 120.855469 10.105469 120.773438 10.105469 120.773438 C 11.265625 120.808594 11.476563 120.125 11.476563 120.125 C 13.410156 119.226563 16.757813 116.78125 16.757813 116.78125 C 22.546875 111.761719 18.6875 110.175781 18.6875 110.175781 M 17.832031 113.175781 C 17.832031 113.175781 17.140625 114.894531 13.710938 116.992188 C 13.710938 116.992188 10.40625 119.738281 10.234375 118.15625 C 10.234375 118.15625 10.449219 117.683594 10.964844 117.683594 C 10.964844 117.683594 11.351563 117.59375 11.394531 116.953125 C 11.394531 116.953125 11.394531 116.179688 11.691406 115.964844 L 12.207031 115.320313 C 12.207031 115.320313 12.851563 114.71875 13.238281 114.332031 C 13.238281 114.332031 14.050781 113.609375 14.570313 113.347656 C 14.570313 113.347656 17.316406 111.074219 18.085938 111.804688 C 18.085938 111.804688 18.558594 112.445313 17.832031 113.175781 "/>
<path style=" stroke:none;fill-rule:nonzero;fill:rgb(25.498962%,25.498962%,25.099182%);fill-opacity:1;" d="M 42.011719 107.214844 C 41.492188 107.082031 40.082031 107.859375 40.082031 107.859375 C 38.75 108.460938 35.40625 112.019531 35.40625 112.019531 C 34.804688 112.578125 33.214844 115.578125 33.214844 115.578125 C 32.53125 117.425781 31.5 117.296875 31.5 117.296875 L 30.082031 117.554688 C 28.796875 117.722656 29.097656 118.667969 29.097656 118.667969 C 29.566406 119.394531 31.367188 119.394531 31.367188 119.394531 C 32.058594 119.394531 32.226563 120.210938 32.226563 120.210938 C 32.527344 122.402344 34.503906 122.402344 34.503906 122.402344 C 35.832031 122.402344 37.332031 121.667969 37.332031 121.667969 C 38.105469 121.328125 38.105469 120.984375 38.105469 120.984375 C 38.0625 120.429688 36.863281 120.558594 36.21875 120.769531 C 35.574219 120.984375 34.757813 120.902344 34.757813 120.902344 C 33.601563 120.730469 33.6875 118.886719 33.6875 118.886719 C 33.601563 118.238281 33.945313 118.195313 33.945313 118.195313 C 34.457031 118.070313 37.890625 115.578125 37.890625 115.578125 C 38.191406 115.238281 39.09375 114.765625 39.09375 114.765625 C 41.582031 112.703125 42.65625 110.429688 42.65625 110.429688 C 43.46875 107.601563 42.011719 107.214844 42.011719 107.214844 M 41.453125 109.488281 C 41.453125 109.488281 40.894531 112.488281 35.058594 115.367188 C 35.058594 115.367188 36.605469 112.191406 39.949219 109.53125 C 39.949219 109.53125 41.625 108.371094 41.453125 109.488281 "/>
<path style=" stroke:none;fill-rule:nonzero;fill:rgb(25.498962%,25.498962%,25.099182%);fill-opacity:1;" d="M 41.433594 117.972656 C 41.433594 117.972656 40.914063 120.097656 43.039063 119.835938 C 43.039063 119.835938 44.550781 119.707031 44.746094 118.101563 C 44.746094 118.101563 43.84375 114.078125 44.039063 112.242188 C 44.039063 112.242188 44.457031 108.125 48.289063 109.121094 C 48.289063 109.121094 49.121094 109.441406 49.476563 109.960938 C 49.476563 109.960938 49.574219 110.34375 49.054688 110.28125 C 49.054688 110.28125 46.609375 109.347656 46.066406 110.507813 C 46.066406 110.507813 44.328125 111.664063 46.222656 118.742188 C 46.222656 118.742188 46.386719 121.925781 42.589844 121.707031 C 42.589844 121.707031 39.117188 120.902344 40.207031 117.972656 C 40.207031 117.972656 40.496094 117.101563 41.144531 117.328125 C 41.144531 117.328125 41.496094 117.585938 41.433594 117.972656 "/>
<path style=" stroke:none;fill-rule:nonzero;fill:rgb(25.498962%,25.498962%,25.099182%);fill-opacity:1;" d="M 107.78125 119.382813 C 107.78125 119.382813 107.242188 121.65625 109.453125 121.375 C 109.453125 121.375 111.03125 121.242188 111.230469 119.519531 C 111.230469 119.519531 108.28125 115.570313 108.484375 113.601563 C 108.484375 113.601563 108.917969 109.195313 112.90625 110.265625 C 112.90625 110.265625 113.773438 110.609375 114.140625 111.160156 C 114.140625 111.160156 114.242188 111.574219 113.707031 111.503906 C 113.707031 111.503906 111.160156 110.507813 110.59375 111.742188 C 110.59375 111.742188 108.429688 114.203125 112.03125 118.195313 C 112.03125 118.195313 114.609375 122.441406 108.988281 123.378906 C 108.988281 123.378906 105.855469 122.574219 106.507813 119.382813 C 106.507813 119.382813 106.808594 118.449219 107.476563 118.6875 C 107.476563 118.6875 107.847656 118.96875 107.78125 119.382813 "/>
<path style=" stroke:none;fill-rule:nonzero;fill:rgb(25.498962%,25.498962%,25.099182%);fill-opacity:1;" d="M 55.464844 109.890625 C 55.464844 109.890625 59.871094 100.660156 60.386719 98.726563 C 60.386719 98.726563 61.09375 95.578125 62.285156 95.800781 C 62.285156 95.800781 63.828125 96.027344 62.796875 98.246094 L 57.589844 109.441406 L 57.425781 109.667969 L 65.277344 109.699219 C 65.277344 109.699219 66.949219 110.539063 65.242188 111.246094 L 56.652344 111.371094 C 56.652344 111.371094 53.402344 119.9375 52.597656 121.351563 C 52.597656 121.351563 51.730469 123.28125 51.277344 123.761719 C 51.277344 123.761719 50.472656 124.597656 50.089844 123.988281 C 50.089844 123.988281 49.121094 122.734375 49.796875 122.285156 C 49.796875 122.285156 51.085938 121.449219 51.699219 119.898438 L 54.851563 111.957031 L 54.882813 111.664063 L 53.179688 111.632813 C 53.179688 111.632813 52.726563 111.828125 52.628906 112.082031 C 52.628906 112.082031 52.179688 113.144531 51.441406 112.5 C 51.441406 112.5 49.960938 111.246094 51.246094 110.636719 C 51.246094 110.636719 53.628906 110.183594 55.046875 110.183594 L 55.398438 110.058594 "/>
<path style=" stroke:none;fill-rule:nonzero;fill:rgb(25.498962%,25.498962%,25.099182%);fill-opacity:1;" d="M 72.238281 113.769531 C 72.238281 113.769531 73.089844 112.859375 72.289063 111.011719 C 72.289063 111.011719 71.929688 110.675781 71.597656 111.316406 C 71.597656 111.316406 70.277344 108.558594 64.101563 113.6875 C 64.101563 113.6875 61.007813 116.308594 59.988281 119.59375 C 59.988281 119.59375 59.523438 122.871094 62.609375 122.925781 C 62.609375 122.925781 64.566406 122.925781 67.410156 120.582031 C 67.410156 120.582031 67.960938 119.972656 68.15625 120.582031 C 68.15625 120.582031 68.179688 122.679688 69.589844 122.539063 C 69.589844 122.539063 70.527344 122.347656 70.304688 121.410156 C 70.304688 121.410156 70 120.914063 69.894531 120.859375 C 69.894531 120.859375 69.449219 120.082031 69.78125 119.175781 C 69.78125 119.175781 71.988281 114.542969 72.238281 113.769531 M 67.050781 119.234375 C 67.050781 119.234375 64.070313 122.183594 61.917969 121.078125 C 61.917969 121.078125 60.210938 119.394531 63.519531 116.144531 C 63.519531 116.144531 67.4375 112.308594 69.863281 111.867188 C 69.863281 111.867188 71.078125 111.535156 70.882813 112.554688 C 70.882813 112.554688 69.917969 114.242188 69.722656 115.007813 C 69.722656 115.007813 69.0625 117.492188 67.050781 119.234375 "/>
<path style=" stroke:none;fill-rule:nonzero;fill:rgb(25.498962%,25.498962%,25.099182%);fill-opacity:1;" d="M 72.484375 121.382813 L 76.3125 112.953125 C 76.3125 112.953125 76.699219 112.277344 77.472656 112.628906 C 77.472656 112.628906 78.246094 112.917969 77.730469 114.238281 C 77.730469 114.238281 77.246094 115.039063 78.117188 114.589844 C 78.117188 114.589844 84.101563 110.894531 86.546875 110.695313 C 86.546875 110.695313 90.25 109.988281 86.003906 115.847656 C 86.003906 115.847656 85.355469 117.199219 86.675781 116.589844 L 93.628906 110.792969 C 93.628906 110.792969 95.429688 109.316406 96.558594 109.890625 C 96.558594 109.890625 97.90625 109.769531 96.777344 113.078125 C 96.777344 113.078125 95.941406 115.972656 94.59375 117.78125 C 94.59375 117.78125 93.082031 119.390625 93.046875 119.835938 C 93.046875 119.835938 93.046875 120.738281 92.371094 120.773438 C 92.371094 120.773438 91.214844 120.933594 91.246094 119.289063 C 91.246094 119.289063 91.566406 118.164063 92.40625 117.523438 C 92.40625 117.523438 94.109375 115.558594 94.367188 115.007813 C 94.367188 115.007813 95.234375 113.335938 95.398438 112.726563 C 95.398438 112.726563 96.265625 110.636719 94.851563 111.535156 L 83.457031 120.449219 C 83.457031 120.449219 81.492188 121.640625 81.65625 119.964844 C 81.65625 119.964844 84.421875 115.683594 85.484375 114.398438 C 85.484375 114.398438 87.351563 111.953125 85.550781 112.4375 C 85.550781 112.4375 78.371094 114.945313 74.320313 121.671875 C 74.320313 121.671875 73.515625 122.863281 72.90625 122.445313 C 72.90625 122.445313 72.164063 122.347656 72.484375 121.382813 "/>
<path style=" stroke:none;fill-rule:nonzero;fill:rgb(25.498962%,25.498962%,25.099182%);fill-opacity:1;" d="M 106.09375 112.019531 C 105.722656 111.707031 105.46875 111.199219 105.46875 111.199219 C 105.316406 109.4375 103.734375 109.671875 103.734375 109.671875 C 102.738281 109.671875 101.300781 111.273438 101.300781 111.273438 C 100.710938 111.941406 99.164063 114.332031 99.164063 114.332031 C 98.757813 115.109375 98.242188 116.597656 98.242188 116.597656 C 97.28125 118.472656 97.761719 122.425781 97.761719 122.425781 C 97.761719 123.601563 98.71875 123.484375 98.941406 123.363281 C 99.164063 123.246094 101.15625 121.371094 101.15625 121.371094 C 101.671875 120.902344 105.871094 116.402344 105.871094 116.402344 C 107.71875 113.777344 106.09375 112.019531 106.09375 112.019531 M 104.695313 114.992188 C 104.730469 114.875 102.257813 118.742188 100.964844 119.480469 C 100.964844 119.480469 97.875 122.574219 99.417969 118.324219 C 99.417969 118.324219 100.335938 115.03125 101.480469 113.820313 C 101.480469 113.820313 102.839844 111.792969 103.796875 112.148438 C 103.796875 112.148438 104.359375 113.269531 104.839844 113.351563 C 104.839844 113.351563 105.6875 113.664063 104.695313 114.992188 "/>
<g clip-path="url(#clip1)" clip-rule="nonzero">
<path style=" stroke:none;fill-rule:nonzero;fill:rgb(25.498962%,25.498962%,25.099182%);fill-opacity:1;" d="M 136.359375 109.699219 C 134.171875 107.898438 131.210938 111.5 131.210938 111.5 C 130.4375 112.019531 130.175781 111.246094 130.175781 111.246094 C 129.539063 109.828125 129.023438 111.5 129.023438 111.5 C 129.023438 112.917969 126.445313 117.9375 126.445313 117.9375 C 124.128906 122.953125 118.59375 131.070313 118.59375 131.070313 C 118.339844 131.714844 117.695313 132.871094 117.695313 132.871094 C 116.40625 136.21875 118.726563 134.414063 118.726563 134.414063 L 124.773438 124.503906 C 125.671875 123.089844 126.578125 122.574219 126.578125 122.574219 C 126.960938 122.574219 128.25 122.316406 128.25 122.316406 C 132.753906 121.160156 135.84375 116.523438 135.84375 116.523438 C 138.933594 112.398438 136.359375 109.699219 136.359375 109.699219 M 130.824219 119.355469 C 130.824219 119.355469 128.503906 120.773438 127.09375 120.773438 C 127.09375 120.773438 130.050781 113.046875 134.042969 110.855469 C 134.042969 110.855469 135.972656 110.476563 135.972656 112.277344 C 135.972656 112.277344 135.199219 117.039063 130.824219 119.355469 "/>
</g>
<path style=" stroke:none;fill-rule:nonzero;fill:rgb(25.498962%,25.498962%,25.099182%);fill-opacity:1;" d="M 144.210938 112.984375 C 143.566406 112.085938 141.507813 112.660156 141.507813 112.660156 C 141.121094 112.855469 140.351563 113.367188 140.351563 113.367188 C 134.363281 116.265625 136.292969 121.988281 136.292969 121.988281 C 136.9375 123.992188 138.289063 123.730469 138.289063 123.730469 C 139.644531 123.472656 141.441406 121.089844 141.441406 121.089844 C 141.507813 120.710938 142.601563 119.355469 142.601563 119.355469 C 143.371094 118.519531 144.597656 116.203125 144.597656 116.203125 C 145.433594 114.078125 144.210938 112.984375 144.210938 112.984375 M 143.4375 114.847656 C 143.4375 114.847656 141.378906 119.355469 139.125 120.773438 C 139.125 120.773438 137.582031 122.574219 137.835938 120.066406 C 137.835938 120.066406 138.609375 115.367188 141.957031 114.527344 C 141.957031 114.527344 142.792969 114.589844 142.984375 114.335938 C 142.984375 114.335938 143.761719 114.011719 143.4375 114.847656 "/>
<path style=" stroke:none;fill-rule:nonzero;fill:rgb(25.498962%,25.498962%,25.099182%);fill-opacity:1;" d="M 146.078125 117.746094 C 146.078125 117.746094 145.238281 119.871094 146.273438 120.066406 C 146.273438 120.066406 146.71875 120.257813 147.683594 118.96875 C 147.683594 118.96875 152.511719 113.304688 155.410156 112.726563 C 155.410156 112.726563 158.109375 111.761719 156.695313 114.078125 C 156.695313 114.078125 152.832031 120.316406 152.703125 120.574219 C 152.703125 120.574219 151.546875 122.640625 152.769531 123.34375 C 152.769531 123.34375 153.863281 123.921875 154.375 121.988281 C 154.375 121.988281 154.3125 120.902344 154.957031 119.996094 C 154.957031 119.996094 157.722656 115.234375 157.984375 114.71875 C 157.984375 114.71875 159.011719 112.855469 158.046875 110.925781 C 158.046875 110.925781 156.246094 109.828125 149.9375 114.140625 C 149.9375 114.140625 148.136719 115.753906 149.230469 114.011719 C 149.230469 114.011719 149.8125 112.984375 149.164063 112.726563 C 149.164063 112.726563 148.136719 112.726563 146.078125 117.746094 "/>
<path style=" stroke:none;fill-rule:nonzero;fill:rgb(25.498962%,25.498962%,25.099182%);fill-opacity:1;" d="M 161.78125 113.046875 C 161.78125 113.046875 159.011719 118.003906 158.109375 121.867188 C 158.109375 121.867188 157.40625 123.601563 158.496094 124.25 C 158.496094 124.25 158.882813 124.4375 159.269531 123.152344 C 159.269531 123.152344 161.394531 116.972656 162.425781 115.367188 C 162.425781 115.367188 163.066406 114.398438 163.257813 114.078125 C 163.453125 113.753906 163.902344 112.917969 163.003906 112.339844 C 163.003906 112.339844 161.972656 112.660156 161.78125 113.046875 "/>
<path style=" stroke:none;fill-rule:nonzero;fill:rgb(25.498962%,25.498962%,25.099182%);fill-opacity:1;" d="M 163.902344 105.753906 C 163.839844 106.074219 163.902344 106.203125 163.839844 106.460938 C 163.777344 106.71875 164.03125 106.398438 163.777344 106.71875 C 163.519531 107.042969 163.453125 107.105469 163.582031 107.359375 C 163.710938 107.617188 163.582031 107.554688 163.777344 107.875 C 163.972656 108.199219 164.289063 108.523438 164.613281 108.523438 C 164.933594 108.523438 164.613281 108.910156 165.511719 108.390625 C 166.414063 107.875 166.800781 108.074219 166.863281 107.875 C 166.929688 107.683594 166.992188 107.425781 166.863281 107.238281 C 166.734375 107.042969 166.734375 106.976563 166.605469 106.78125 C 166.476563 106.589844 165.898438 106.269531 165.898438 106.269531 L 165.382813 105.820313 C 165.382813 105.820313 165.128906 105.625 164.804688 105.625 C 164.484375 105.625 164.417969 105.5625 164.226563 105.5625 C 164.03125 105.5625 163.902344 105.753906 163.902344 105.753906 "/>
<path style=" stroke:none;fill-rule:nonzero;fill:rgb(25.498962%,25.498962%,25.099182%);fill-opacity:1;" d="M 172.011719 115.558594 C 175.8125 114.207031 175.875 111.699219 175.875 111.699219 C 175.230469 109.769531 174.265625 110.214844 174.265625 110.214844 C 170.339844 110.019531 165.832031 115.238281 165.832031 115.238281 C 165.191406 115.941406 164.355469 116.074219 164.355469 116.074219 C 163.453125 116.523438 164.03125 117.230469 164.03125 117.230469 C 163.839844 117.554688 163.519531 119.226563 163.519531 119.226563 C 163.519531 121.222656 165.191406 121.800781 165.191406 121.800781 C 165.707031 122.378906 166.546875 122.441406 166.546875 122.441406 C 168.539063 122.441406 170.722656 121.089844 170.722656 121.089844 C 174.074219 119.550781 173.304688 119.097656 173.304688 119.097656 C 173.171875 118.324219 171.816406 118.96875 171.816406 118.96875 C 167.960938 120.769531 166.285156 120.515625 166.285156 120.515625 C 164.160156 119.550781 166.671875 116.777344 166.671875 116.777344 C 168.085938 116.648438 172.011719 115.558594 172.011719 115.558594 M 168.023438 114.976563 C 168.023438 114.976563 171.816406 111.699219 173.492188 111.632813 C 173.492188 111.632813 175.296875 111.699219 173.878906 112.855469 C 173.878906 112.855469 173.429688 113.757813 169.179688 114.976563 C 169.179688 114.976563 167.765625 115.558594 168.023438 114.976563 "/>
<path style=" stroke:none;fill-rule:nonzero;fill:rgb(25.498962%,25.498962%,25.099182%);fill-opacity:1;" d="M 177.03125 113.949219 C 177.03125 113.949219 175.105469 116.972656 174.199219 118.582031 C 174.199219 118.582031 173.429688 120.710938 174.910156 120.640625 C 174.910156 120.640625 175.425781 120.902344 176.519531 119.675781 C 176.519531 119.675781 183.921875 113.566406 185.402344 113.433594 C 185.402344 113.433594 186.878906 113.175781 186.109375 114.140625 C 186.109375 114.140625 182.5 118.582031 182.242188 119.867188 C 182.242188 119.867188 181.730469 121.929688 183.082031 121.929688 C 183.082031 121.929688 185.402344 121.609375 185.980469 120.96875 C 185.980469 120.96875 186.816406 119.738281 185.464844 119.996094 C 185.464844 119.996094 183.535156 120.515625 184.242188 119.289063 L 187.265625 115.296875 C 187.265625 115.296875 188.425781 114.078125 188.039063 112.789063 C 188.039063 112.789063 187.847656 112.210938 187.847656 111.953125 C 187.847656 111.953125 187.460938 111.183594 185.527344 111.890625 C 185.527344 111.890625 181.730469 113.046875 178.386719 115.816406 C 178.386719 115.816406 178.769531 114.785156 179.222656 114.269531 C 179.222656 114.269531 179.480469 113.242188 178.898438 112.789063 C 178.898438 112.789063 178.386719 112.535156 177.03125 113.949219 "/>
<path style=" stroke:none;fill-rule:nonzero;fill:rgb(25.498962%,25.498962%,25.099182%);fill-opacity:1;" d="M 197.414063 113.519531 C 197.414063 113.519531 196.703125 112.8125 195.160156 113.714844 C 195.160156 113.714844 193.617188 114.933594 193.164063 115.0625 C 193.164063 115.0625 191.941406 115.578125 191.492188 116.09375 C 191.492188 116.09375 189.046875 119.574219 189.558594 120.019531 C 189.558594 120.019531 190.527344 120.40625 192.714844 119.054688 C 192.714844 119.054688 197.09375 116.671875 200.054688 113.328125 C 200.054688 113.328125 205.566406 104.960938 206.015625 104.253906 C 206.015625 104.253906 206.976563 102.960938 207.558594 102.710938 C 207.558594 102.710938 207.816406 102.128906 208.203125 101.289063 C 208.203125 101.289063 209.234375 100.066406 209.171875 101.160156 C 209.171875 101.160156 208.289063 104.960938 205.78125 108.695313 C 205.78125 108.695313 200.308594 114.871094 199.601563 118.347656 C 199.601563 118.347656 198.375 122.015625 199.859375 121.113281 L 201.085938 120.277344 C 201.085938 120.277344 202.304688 119.699219 201.789063 120.730469 C 201.789063 120.730469 200.566406 123.554688 198.183594 122.65625 C 198.183594 122.65625 196.644531 122.015625 198.121094 118.089844 C 198.121094 118.089844 198.121094 116.863281 197.539063 117.511719 C 197.539063 117.511719 192.070313 122.339844 189.113281 122.210938 C 189.113281 122.210938 188.015625 122.402344 187.886719 120.730469 C 187.886719 120.730469 187.691406 119.121094 188.789063 117.253906 C 188.789063 117.253906 191.234375 114.035156 192.390625 113.714844 C 192.390625 113.714844 192.777344 113.714844 193.101563 113.136719 C 193.101563 113.136719 195.03125 111.847656 196.316406 111.78125 C 196.316406 111.78125 198.054688 111.394531 198.703125 113.199219 C 198.703125 113.199219 198.832031 114.613281 197.414063 113.519531 "/>
<path style=" stroke:none;fill-rule:nonzero;fill:rgb(25.498962%,25.498962%,25.099182%);fill-opacity:1;" d="M 209.921875 113.5625 C 209.921875 113.5625 205.675781 115.039063 205.09375 119.679688 C 205.09375 119.679688 205.285156 120.445313 205.480469 120.773438 C 205.480469 120.773438 205.804688 121.609375 205.929688 121.925781 C 205.929688 121.925781 207.605469 123.859375 211.398438 121.289063 C 211.398438 121.289063 216.164063 118.839844 214.878906 114.785156 C 214.878906 114.785156 214.167969 109.890625 206.507813 110.726563 C 206.507813 110.726563 204.773438 111.054688 204.066406 112.015625 C 204.066406 112.015625 203.03125 113.367188 205.542969 112.46875 C 205.542969 112.46875 209.082031 110.988281 211.273438 112.726563 C 211.273438 112.726563 214.488281 114.980469 213.460938 117.039063 C 213.460938 117.039063 210.628906 121.289063 207.21875 120.515625 C 207.21875 120.515625 206.1875 118.839844 208.121094 116.847656 C 208.121094 116.847656 209.53125 115.296875 210.179688 115.167969 C 210.179688 115.167969 211.914063 113.625 209.921875 113.5625 "/>
<path style=" stroke:none;fill-rule:nonzero;fill:rgb(25.498962%,25.498962%,25.099182%);fill-opacity:1;" d="M 249.199219 102.441406 C 249.199219 102.441406 248.082031 104.246094 248.082031 104.675781 C 248.082031 104.675781 247.90625 105.445313 247.484375 105.789063 C 247.484375 105.789063 245.425781 108.792969 244.90625 109.90625 C 244.90625 109.90625 243.535156 112.652344 243.191406 113.085938 C 243.191406 113.085938 239.671875 117.207031 238.644531 122.949219 C 238.644531 122.949219 238.214844 123.894531 238.730469 124.753906 L 239.242188 125.527344 C 239.242188 125.527344 239.84375 125.871094 239.84375 124.496094 C 239.84375 124.496094 242.164063 117.976563 243.449219 115.3125 C 243.449219 115.3125 245.851563 111.195313 246.882813 109.90625 L 249.453125 106.042969 C 249.453125 106.042969 250.914063 103.816406 250.914063 102.957031 L 250.570313 102.015625 C 250.570313 102.015625 250.742188 100.125 249.199219 102.441406 "/>
<path style=" stroke:none;fill-rule:nonzero;fill:rgb(25.498962%,25.498962%,25.099182%);fill-opacity:1;" d="M 240.34375 115.953125 C 240.34375 115.953125 240.035156 115.703125 239.027344 117.179688 C 238.023438 118.65625 236.253906 119.230469 235.105469 120.144531 C 235.105469 120.144531 232.496094 122.039063 229.796875 121.949219 C 229.796875 121.949219 228.917969 121.996094 228.59375 119.996094 C 228.59375 119.996094 235.933594 119.21875 238.753906 113.671875 C 238.753906 113.671875 240.308594 109.988281 237.488281 108.9375 C 237.488281 108.9375 230.730469 108.859375 227.574219 117.261719 C 227.574219 117.261719 225.996094 116.886719 225.875 118.070313 C 225.875 118.070313 225.765625 119.023438 226.46875 119.363281 C 226.46875 119.363281 226.496094 123.105469 229.816406 123.699219 C 229.816406 123.699219 234.515625 123.386719 238.566406 119.070313 C 238.566406 119.070313 240.960938 116.449219 240.34375 115.953125 M 237.121094 110.277344 C 237.121094 110.277344 239.148438 111.382813 237.066406 114.167969 C 237.066406 114.167969 233.90625 118.113281 228.660156 118.089844 C 228.660156 118.089844 231.070313 110.539063 237.121094 110.277344 "/>
<path style=" stroke:none;fill-rule:nonzero;fill:rgb(25.498962%,25.498962%,25.099182%);fill-opacity:1;" d="M 270.515625 118.457031 C 269.726563 118.371094 266.640625 119.695313 266.640625 119.695313 C 264.265625 120.132813 265.757813 117.929688 265.757813 117.929688 C 266.464844 117.046875 267.609375 115.46875 267.609375 115.46875 C 269.105469 112.46875 268.3125 112.203125 268.3125 112.203125 C 267.875 111.851563 266.996094 112.824219 266.996094 112.824219 C 265.847656 113.703125 266.203125 111.945313 266.203125 111.945313 C 266.113281 111.324219 263.558594 112.203125 263.558594 112.203125 C 263.027344 112.382813 261.972656 113.085938 261.972656 113.085938 C 261.796875 113.617188 260.035156 114.144531 260.035156 114.144531 C 259.15625 114.320313 255.894531 116.695313 255.894531 116.695313 C 254.128906 117.929688 254.046875 120.222656 254.046875 120.222656 C 254.21875 122.953125 256.246094 122.597656 256.246094 122.597656 C 259.855469 122.867188 263.296875 120.222656 263.296875 120.222656 C 263.472656 121.277344 264.703125 121.371094 264.703125 121.371094 C 267.171875 121.980469 269.371094 119.957031 269.371094 119.957031 C 271.488281 118.992188 270.515625 118.457031 270.515625 118.457031 M 262.941406 118.371094 C 262.941406 118.371094 258.886719 121.277344 256.070313 120.75 C 256.070313 120.75 255.097656 120.308594 255.980469 119.164063 C 255.980469 119.164063 259.417969 115.375 264.175781 113.617188 C 264.175781 113.617188 266.464844 113.085938 265.585938 114.230469 C 265.585938 114.230469 264.441406 115.90625 264.175781 116.519531 C 264.175781 116.519531 264.441406 117.402344 262.941406 118.371094 "/>
<path style=" stroke:none;fill-rule:nonzero;fill:rgb(25.498962%,25.498962%,25.099182%);fill-opacity:1;" d="M 282.011719 100.359375 C 282.011719 100.359375 273.644531 111.460938 271.707031 115.597656 C 271.707031 115.597656 269.59375 119.121094 269.945313 121.851563 C 269.945313 121.851563 269.945313 123.789063 271.972656 122.46875 C 271.972656 122.46875 272.589844 121.851563 271.882813 121.5 C 271.882813 121.5 270.476563 121.324219 273.644531 115.597656 C 273.644531 115.597656 276.730469 109.253906 280.429688 105.289063 L 282.105469 103.4375 C 282.105469 103.4375 282.628906 103.351563 283.074219 102.738281 C 283.074219 102.738281 284.039063 101.148438 284.304688 100.621094 C 284.304688 100.621094 284.214844 99.476563 283.957031 99.386719 C 283.6875 99.300781 283.601563 99.210938 283.335938 99.300781 L 283.074219 99.386719 L 282.542969 99.917969 "/>
<path style=" stroke:none;fill-rule:nonzero;fill:rgb(25.498962%,25.498962%,25.099182%);fill-opacity:1;" d="M 277.179688 113.660156 L 274.503906 118.417969 C 274.503906 118.417969 273.761719 119.207031 274.429688 119.738281 C 274.429688 119.738281 273.984375 121.589844 275.320313 120.003906 C 275.320313 120.003906 278.894531 116.039063 280.082031 115.421875 C 280.082031 115.421875 284.394531 113.398438 283.726563 115.421875 L 282.683594 117.007813 C 282.683594 117.007813 282.238281 117.355469 282.460938 117.886719 C 282.460938 117.886719 282.238281 119.648438 283.578125 118.324219 L 288.1875 115.859375 C 288.1875 115.859375 292.050781 113.484375 291.160156 114.980469 C 291.160156 114.980469 287 120.261719 288.113281 122.113281 C 288.113281 122.113281 289.078125 123.523438 289.300781 121.589844 C 289.300781 121.589844 289.820313 119.558594 291.011719 118.15625 C 291.011719 118.15625 293.988281 114.714844 293.390625 113.746094 C 293.390625 113.746094 293.097656 113.21875 293.097656 112.867188 C 293.097656 112.867188 293.097656 111.894531 291.828125 112.421875 L 286.253906 115.246094 C 286.253906 115.246094 284.691406 115.859375 285.066406 114.628906 C 285.066406 114.628906 285.734375 112.160156 282.164063 113.304688 C 282.164063 113.304688 280.007813 114.097656 279.488281 114.273438 C 279.488281 114.273438 278.519531 114.890625 278.894531 113.832031 C 278.894531 113.832031 278.296875 112.695313 277.179688 113.660156 "/>
<path style=" stroke:none;fill-rule:nonzero;fill:rgb(25.498962%,25.498962%,25.099182%);fill-opacity:1;" d="M 304.519531 111.894531 C 304.519531 111.894531 303.550781 111.71875 302.671875 112.25 C 302.671875 112.25 295.097656 117.359375 295.003906 119.210938 C 295.003906 119.210938 294.214844 120.089844 295.976563 119.648438 C 295.976563 119.648438 302.320313 117.269531 303.550781 116.125 C 303.550781 116.125 304.257813 115.417969 304.605469 114.890625 C 304.605469 114.890625 306.460938 112.867188 306.726563 113.390625 C 306.726563 113.390625 306.988281 114.011719 306.460938 115.335938 C 306.460938 115.335938 305.226563 117.1875 307.339844 118.332031 C 307.339844 118.332031 311.210938 120.261719 312.183594 120.355469 C 312.183594 120.355469 313.859375 120.707031 313.6875 121.5 C 313.507813 122.292969 312.804688 122.203125 310.070313 121.675781 C 310.070313 121.675781 305.402344 120.089844 304.257813 117.621094 C 304.257813 117.621094 298.710938 120.355469 296.945313 121.0625 C 296.945313 121.0625 290.691406 123.523438 293.070313 119.210938 C 293.070313 119.210938 296.238281 113.308594 302.410156 110.929688 C 302.410156 110.929688 303.460938 110.839844 303.730469 110.402344 C 303.730469 110.402344 304.960938 109.957031 305.136719 110.753906 C 305.136719 110.753906 305.664063 112.074219 305.402344 112.25 C 305.402344 112.25 304.785156 112.601563 304.519531 111.894531 "/>
<path style=" stroke:none;fill-rule:nonzero;fill:rgb(2.398682%,23.899841%,51.799011%);fill-opacity:1;" d="M 11.5 83.585938 C 9.105469 83.585938 4.96875 83.46875 0 83.46875 L 0 43.25 C 3.335938 43.078125 8.460938 42.960938 13.308594 42.960938 C 21.832031 42.960938 26.554688 46.480469 26.554688 52.925781 C 26.554688 56.921875 24.046875 60.4375 20.316406 61.921875 L 20.316406 62.039063 C 24.976563 63.054688 27.320313 67 27.320313 71.050781 C 27.320313 76.898438 23.410156 83.585938 11.5 83.585938 M 12.03125 49.222656 C 10.445313 49.222656 8.929688 49.277344 7.585938 49.335938 L 7.585938 59.835938 C 8.53125 59.902344 9.457031 59.902344 10.683594 59.902344 C 15.875 59.902344 18.5625 57.746094 18.5625 54.167969 C 18.5625 51.183594 16.808594 49.222656 12.03125 49.222656 M 10.914063 65.683594 C 10.332031 65.683594 8.40625 65.683594 7.585938 65.746094 L 7.585938 77.023438 C 8.53125 77.144531 9.980469 77.261719 11.738281 77.261719 C 16.6875 77.261719 19.207031 74.871094 19.207031 71.234375 C 19.207031 67.296875 15.875 65.683594 10.914063 65.683594 "/>
<path style=" stroke:none;fill-rule:nonzero;fill:rgb(2.398682%,23.899841%,51.799011%);fill-opacity:1;" d="M 47.421875 83.535156 C 47.421875 81.710938 47.484375 79.832031 47.730469 78.203125 L 47.664063 78.140625 C 46.191406 81.652344 42.460938 84.089844 37.925781 84.089844 C 32.414063 84.089844 29.222656 80.898438 29.222656 75.890625 C 29.222656 68.441406 36.449219 64.484375 46.808594 64.484375 L 46.808594 62.789063 C 46.808594 59.546875 45.28125 57.847656 40.863281 57.847656 C 38.109375 57.847656 34.433594 58.785156 31.859375 60.292969 L 31.1875 53.585938 C 34.246094 52.457031 38.171875 51.640625 42.09375 51.640625 C 51.898438 51.640625 54.65625 55.664063 54.65625 62.484375 L 54.894531 83.445313 Z M 46.808594 69.683594 C 38.53125 69.683594 36.695313 72.125 36.695313 74.632813 C 36.695313 76.640625 38.046875 77.949219 40.3125 77.949219 C 44.179688 77.949219 46.808594 74.191406 46.808594 70.4375 "/>
<path style=" stroke:none;fill-rule:nonzero;fill:rgb(2.398682%,23.899841%,51.799011%);fill-opacity:1;" d="M 298.085938 83.535156 C 298.085938 81.710938 298.15625 79.832031 298.398438 78.203125 L 298.335938 78.140625 C 296.871094 81.652344 293.128906 84.089844 288.59375 84.089844 C 283.078125 84.089844 279.894531 80.898438 279.894531 75.890625 C 279.894531 68.441406 287.117188 64.484375 297.484375 64.484375 L 297.484375 62.789063 C 297.484375 59.546875 295.941406 57.847656 291.535156 57.847656 C 288.773438 57.847656 285.113281 58.785156 282.527344 60.292969 L 281.859375 53.585938 C 284.910156 52.457031 288.832031 51.640625 292.761719 51.640625 C 302.566406 51.640625 305.320313 55.664063 305.320313 62.484375 L 305.566406 83.445313 Z M 297.484375 69.683594 C 289.199219 69.683594 287.359375 72.125 287.359375 74.632813 C 287.359375 76.640625 288.71875 77.949219 290.980469 77.949219 C 294.835938 77.949219 297.484375 74.191406 297.484375 70.4375 "/>
<path style=" stroke:none;fill-rule:nonzero;fill:rgb(2.398682%,23.899841%,51.799011%);fill-opacity:1;" d="M 102.394531 84.039063 C 93.929688 84.039063 88.664063 79.519531 88.664063 68.933594 C 88.664063 59.222656 93.628906 51.773438 104.414063 51.773438 C 106.5 51.773438 108.703125 52.082031 110.667969 52.65625 L 109.871094 59.601563 C 108.21875 58.96875 106.3125 58.472656 104.355469 58.472656 C 99.394531 58.472656 96.875 62.242188 96.875 68.113281 C 96.875 73.441406 98.894531 77.085938 104.101563 77.085938 C 106.195313 77.085938 108.457031 76.640625 110.121094 75.769531 L 110.722656 82.585938 C 108.636719 83.40625 105.632813 84.039063 102.394531 84.039063 "/>
<path style=" stroke:none;fill-rule:nonzero;fill:rgb(2.398682%,23.899841%,51.799011%);fill-opacity:1;" d="M 126.785156 84.089844 C 118.15625 84.089844 112.570313 79.519531 112.570313 68.441406 C 112.570313 58.726563 118.886719 51.699219 128.136719 51.699219 C 136.773438 51.699219 142.351563 56.589844 142.351563 67.308594 C 142.351563 77.082031 135.921875 84.089844 126.785156 84.089844 M 127.585938 58.472656 C 124.097656 58.472656 120.664063 61.238281 120.664063 67.613281 C 120.664063 74.003906 122.929688 77.261719 127.460938 77.261719 C 131.324219 77.261719 134.261719 74.082031 134.261719 67.75 C 134.261719 61.730469 132.183594 58.472656 127.585938 58.472656 "/>
<path style=" stroke:none;fill-rule:nonzero;fill:rgb(2.398682%,23.899841%,51.799011%);fill-opacity:1;" d="M 170.960938 84.089844 C 162.324219 84.089844 156.746094 79.519531 156.746094 68.441406 C 156.746094 58.726563 163.054688 51.699219 172.3125 51.699219 C 180.949219 51.699219 186.523438 56.589844 186.523438 67.308594 C 186.523438 77.082031 180.09375 84.089844 170.960938 84.089844 M 171.769531 58.472656 C 168.273438 58.472656 164.832031 61.238281 164.832031 67.613281 C 164.832031 74.003906 167.101563 77.261719 171.644531 77.261719 C 175.492188 77.261719 178.441406 74.082031 178.441406 67.75 C 178.441406 61.730469 176.359375 58.472656 171.769531 58.472656 "/>
<path style=" stroke:none;fill-rule:nonzero;fill:rgb(2.398682%,23.899841%,51.799011%);fill-opacity:1;" d="M 277.007813 83.46875 L 268.671875 83.46875 L 268.671875 52.460938 C 272.539063 51.960938 272.46875 52.148438 277.007813 52.265625 Z M 273.085938 48.328125 C 270.453125 48.328125 268.246094 46.132813 268.246094 43.4375 C 268.246094 40.808594 270.453125 38.617188 273.085938 38.617188 C 275.785156 38.617188 277.980469 40.746094 277.980469 43.4375 C 277.980469 46.132813 275.785156 48.328125 273.085938 48.328125 "/>
<path style=" stroke:none;fill-rule:nonzero;fill:rgb(2.398682%,23.899841%,51.799011%);fill-opacity:1;" d="M 76.609375 51.640625 C 71.652344 51.640625 68.089844 54.214844 66.25 57.914063 L 66.191406 57.847656 L 66.394531 52.269531 C 63.65625 52.519531 61.199219 53.085938 59.136719 53.960938 L 59.136719 83.46875 L 67.042969 83.46875 L 67.042969 68.441406 C 67.042969 62.980469 70.175781 58.355469 74.15625 58.355469 C 77.03125 58.355469 77.898438 60.292969 77.898438 63.546875 L 77.898438 83.46875 L 85.679688 83.46875 L 85.679688 61.605469 C 85.679688 56.160156 83.472656 51.640625 76.609375 51.640625 "/>
<path style=" stroke:none;fill-rule:nonzero;fill:rgb(2.398682%,23.899841%,51.799011%);fill-opacity:1;" d="M 145.765625 41.722656 L 145.765625 83.46875 L 153.339844 83.46875 L 153.339844 39.867188 C 150.453125 40.144531 147.890625 40.761719 145.765625 41.722656 "/>
<path style=" stroke:none;fill-rule:nonzero;fill:rgb(2.398682%,23.899841%,51.799011%);fill-opacity:1;" d="M 254.789063 53.222656 C 250.707031 53.222656 247.488281 55.253906 246.035156 58.46875 L 245.972656 58.46875 C 246.265625 56.921875 246.4375 54.464844 246.4375 52.675781 L 246.4375 39.867188 C 243.546875 40.15625 240.996094 40.785156 238.878906 41.757813 L 238.878906 82.621094 C 242.191406 83.585938 245.566406 84.0625 249.769531 84.0625 C 259.746094 84.0625 265.46875 77.140625 265.46875 67.113281 C 265.46875 58.355469 261.726563 53.222656 254.789063 53.222656 M 250.296875 77.976563 C 248.707031 77.976563 247.488281 77.792969 246.4375 77.4375 L 246.4375 69.085938 C 246.4375 64.140625 248.777344 59.546875 252.621094 59.546875 C 256.019531 59.546875 257.589844 62.339844 257.589844 67.894531 C 257.589844 75.230469 254.546875 77.976563 250.296875 77.976563 "/>
<path style=" stroke:none;fill-rule:nonzero;fill:rgb(2.398682%,23.899841%,51.799011%);fill-opacity:1;" d="M 225.515625 51.640625 C 220.371094 51.640625 216.996094 54.839844 215.589844 57.914063 C 214.851563 54.902344 212.585938 51.640625 207.1875 51.640625 C 202.660156 51.640625 198.984375 54.089844 197.144531 57.914063 L 197.078125 57.914063 C 197.3125 56.242188 197.429688 53.832031 197.445313 52.289063 C 194.617188 52.570313 192.109375 53.179688 190.023438 54.132813 L 190.023438 83.46875 L 197.890625 83.46875 L 197.890625 68.558594 C 197.890625 62.742188 201.25 58.355469 204.867188 58.355469 C 207.878906 58.355469 208.484375 60.660156 208.484375 63.730469 L 208.484375 83.46875 L 216.207031 83.46875 L 216.207031 68.558594 C 216.207031 62.484375 219.757813 58.355469 223.1875 58.355469 C 226.0625 58.355469 226.8125 60.414063 226.8125 63.730469 L 226.8125 83.46875 L 234.652344 83.46875 L 234.652344 62.039063 C 234.652344 54.96875 231.398438 51.640625 225.515625 51.640625 "/>
<g clip-path="url(#clip2)" clip-rule="nonzero">
<path style=" stroke:none;fill-rule:nonzero;fill:rgb(88.598633%,1.998901%,12.199402%);fill-opacity:1;" d="M 359.945313 42.128906 C 360.382813 43.621094 360.242188 44.964844 358.476563 45.6875 C 356.363281 46.550781 354.792969 47.113281 352.1875 48.136719 C 350.851563 48.640625 349.566406 49.144531 348.09375 49.710938 C 346.664063 50.25 345.183594 50.835938 343.570313 51.441406 C 337.15625 53.898438 329.863281 56.640625 320.761719 60 C 318.8125 60.664063 316.828125 59.648438 316.113281 57.558594 C 314.621094 52.789063 312.933594 48.164063 311.289063 43.867188 C 310.589844 41.894531 311.609375 40.105469 313.511719 39.527344 C 318.136719 38.226563 322.269531 37.199219 326.285156 36.21875 C 330.269531 35.234375 333.789063 34.402344 337.148438 33.664063 C 343.875 32.132813 348.199219 31.203125 352.796875 30.402344 C 355.019531 30.011719 355.816406 30.96875 356.414063 32.390625 C 357.722656 35.570313 358.871094 38.773438 359.945313 42.128906 "/>
</g>
<path style=" stroke:none;fill-rule:nonzero;fill:rgb(100%,82.398987%,0%);fill-opacity:1;" d="M 355.625 16.039063 C 354.984375 14.785156 354.425781 14.054688 352.105469 14.011719 C 345.671875 13.875 338.179688 14.363281 326.878906 16.03125 C 321.214844 16.863281 315.101563 18.035156 308.445313 19.6875 C 305.105469 20.574219 301.789063 21.410156 298.429688 22.554688 C 294.898438 23.640625 291.664063 24.808594 288.367188 26.082031 C 286.417969 26.863281 285.253906 28.617188 285.570313 30.117188 C 286.421875 33.613281 287.296875 37.125 288.328125 41.175781 C 288.839844 42.925781 290.847656 43.722656 292.964844 42.914063 C 300.335938 40.117188 308.035156 37.707031 315.238281 35.757813 C 322.472656 33.859375 328.652344 32.433594 334.324219 31.183594 C 345.566406 28.738281 351.457031 27.953125 357.496094 26.894531 C 358.867188 26.648438 359.46875 25.761719 358.859375 24.269531 "/>
<path style=" stroke:none;fill-rule:nonzero;fill:rgb(2.398682%,23.899841%,51.799011%);fill-opacity:1;" d="M 348.03125 2.207031 C 347.167969 0.726563 346.320313 0.597656 345.199219 0.425781 C 341.121094 -0.226563 331.574219 -0.132813 323.582031 0.714844 C 319.554688 1.054688 315.453125 1.671875 310.964844 2.503906 C 306.503906 3.398438 302.019531 4.414063 297.328125 5.800781 C 295.753906 6.292969 294.796875 7.199219 295.410156 9.011719 C 296.242188 11.464844 296.984375 13.542969 297.976563 16.433594 C 298.644531 18.347656 300.296875 18.363281 302.046875 17.828125 C 307.289063 16.28125 312.269531 15.089844 317.144531 14.136719 C 322.039063 13.15625 326.378906 12.546875 330.53125 11.980469 C 338.859375 10.980469 346 10.765625 350.019531 10.714844 C 350.945313 10.695313 351.5625 9.859375 350.878906 8.78125 "/>
<path style=" stroke:none;fill-rule:nonzero;fill:rgb(2.398682%,23.899841%,51.799011%);fill-opacity:1;" d="M 13.058594 15.472656 C 12.449219 12.953125 11.3125 10.546875 8.15625 10.546875 C 5.167969 10.546875 2.617188 13.367188 2.617188 19.90625 C 2.617188 26.4375 5.167969 29.265625 8.15625 29.265625 C 12.144531 29.265625 13.191406 25.554688 12.972656 22.285156 L 8.601563 22.285156 L 8.601563 20.347656 L 15.242188 20.347656 L 15.242188 30.679688 L 13.308594 30.679688 L 13.308594 28.570313 C 12.144531 30.183594 10.289063 31.121094 8.15625 31.121094 C 3.667969 31.121094 0.34375 26.992188 0.34375 19.90625 C 0.34375 12.8125 3.667969 8.6875 8.15625 8.6875 C 12.113281 8.6875 14.523438 11.402344 15.242188 14.945313 "/>
<path style=" stroke:none;fill-rule:nonzero;fill:rgb(2.398682%,23.899841%,51.799011%);fill-opacity:1;" d="M 19.539063 18.6875 L 19.589844 18.6875 C 20.449219 16.859375 21.5625 15.171875 23.832031 15.171875 L 24.660156 15.171875 L 24.660156 17.132813 C 21.835938 16.746094 20.367188 19.792969 19.539063 22.007813 L 19.539063 30.679688 L 17.378906 30.679688 L 17.378906 15.390625 L 19.539063 15.390625 "/>
<path style=" stroke:none;fill-rule:nonzero;fill:rgb(2.398682%,23.899841%,51.799011%);fill-opacity:1;" d="M 33.992188 15.390625 L 36.15625 15.390625 L 36.15625 30.679688 L 33.992188 30.679688 L 33.992188 29.097656 C 32.722656 30.125 31.53125 31.121094 29.785156 31.121094 C 27.625 31.121094 25.882813 29.929688 25.882813 25.941406 L 25.882813 15.390625 L 28.039063 15.390625 L 28.039063 25.390625 C 28.039063 26.996094 28.316406 29.351563 30.0625 29.351563 C 31.390625 29.351563 33.136719 28.046875 33.992188 27.023438 "/>
<path style=" stroke:none;fill-rule:nonzero;fill:rgb(2.398682%,23.899841%,51.799011%);fill-opacity:1;" d="M 40.585938 35.414063 L 38.425781 35.414063 L 38.425781 15.390625 L 40.585938 15.390625 L 40.585938 16.972656 C 41.585938 15.914063 42.941406 14.945313 44.410156 14.945313 C 47.039063 14.945313 50.085938 17.332031 50.085938 23.335938 C 50.085938 29.210938 46.570313 31.117188 44.492188 31.117188 C 42.800781 31.117188 41.609375 30.207031 40.585938 28.933594 Z M 40.585938 26.386719 C 41.195313 27.683594 42.664063 29.238281 44.1875 29.238281 C 45.683594 29.238281 47.816406 27.769531 47.816406 23.285156 C 47.816406 20.984375 47.179688 16.832031 44.160156 16.832031 C 42.5 16.832031 41.253906 17.964844 40.585938 19.296875 "/>
<path style=" stroke:none;fill-rule:nonzero;fill:rgb(2.398682%,23.899841%,51.799011%);fill-opacity:1;" d="M 51.527344 23.035156 C 51.527344 17.300781 54.238281 14.945313 57.648438 14.945313 C 61.054688 14.945313 63.769531 17.300781 63.769531 23.035156 C 63.769531 28.765625 61.054688 31.121094 57.648438 31.121094 C 54.238281 31.121094 51.527344 28.765625 51.527344 23.035156 M 61.605469 23.035156 C 61.605469 20.429688 60.96875 16.773438 57.648438 16.773438 C 54.324219 16.773438 53.6875 20.429688 53.6875 23.035156 C 53.6875 25.636719 54.324219 29.292969 57.648438 29.292969 C 60.96875 29.292969 61.605469 25.636719 61.605469 23.035156 "/>
</g>
</svg>
