<?xml version="1.0" standalone="no"?>
<!DOCTYPE svg PUBLIC "-//W3C//DTD SVG 20010904//EN"
 "http://www.w3.org/TR/2001/REC-SVG-20010904/DTD/svg10.dtd">
<svg version="1.0" xmlns="http://www.w3.org/2000/svg"
 width="309.000000pt" height="121.000000pt" viewBox="0 0 309.000000 121.000000"
 preserveAspectRatio="xMidYMid meet">

<g transform="translate(0.000000,121.000000) scale(0.100000,-0.100000)"
fill="#000000" stroke="none">
<path d="M2742 743 c2 -10 10 -18 18 -18 8 0 16 8 18 18 2 12 -3 17 -18 17
-15 0 -20 -5 -18 -17z"/>
<path d="M1627 719 c-35 -27 -52 -90 -35 -127 12 -23 19 -27 57 -27 29 0 46 5
49 14 3 10 -2 13 -22 9 -29 -6 -56 13 -56 38 0 8 7 31 15 50 13 32 18 36 45
32 34 -5 51 9 29 23 -23 15 -55 10 -82 -12z"/>
<path d="M2636 705 c-18 -17 -25 -29 -18 -34 6 -3 10 -29 9 -56 -2 -50 -2 -50
31 -53 33 -3 45 14 17 24 -26 10 -16 84 11 84 8 0 14 5 14 10 0 6 -6 10 -14
10 -8 0 -16 9 -18 21 -3 20 -4 20 -32 -6z"/>
<path d="M1774 690 c-29 -12 -50 -65 -38 -98 13 -36 73 -43 103 -13 29 29 28
85 -1 105 -25 18 -34 19 -64 6z m46 -54 c0 -35 -21 -63 -40 -51 -23 14 -3 85
25 85 10 0 15 -11 15 -34z"/>
<path d="M1915 675 c-27 -26 -34 -82 -13 -103 18 -18 73 -14 91 6 29 31 32 77
8 101 -28 28 -56 27 -86 -4z m63 -35 c3 -30 -20 -66 -36 -56 -13 8 -16 45 -6
71 10 24 39 14 42 -15z"/>
<path d="M2094 693 c-35 -4 -32 2 -50 -141 -6 -46 -5 -52 10 -46 9 3 19 17 22
30 5 18 13 24 34 24 37 0 62 31 64 80 1 39 -14 62 -39 58 -5 -1 -24 -3 -41 -5z
m44 -54 c3 -25 -19 -59 -39 -59 -10 0 -12 73 -2 84 15 14 38 0 41 -25z"/>
<path d="M2238 680 c-32 -25 -41 -68 -22 -98 12 -18 23 -23 51 -20 20 2 38 9
41 16 3 8 -6 12 -29 10 -46 -4 -46 17 0 31 47 14 64 47 35 68 -25 18 -47 16
-76 -7z m52 -18 c0 -13 -23 -32 -37 -32 -11 0 -11 5 -3 20 10 19 40 28 40 12z"/>
<path d="M2421 691 c-7 -5 -21 -6 -31 -4 -20 5 -25 -5 -35 -79 -6 -44 -4 -48
14 -48 16 0 21 6 21 25 0 33 20 75 37 75 7 0 13 2 13 4 0 2 3 11 6 20 7 18 -4
20 -25 7z"/>
<path d="M2484 675 c-20 -20 -25 -33 -22 -68 l3 -42 55 0 c48 0 55 3 56 20 1
11 3 37 5 58 6 60 -50 79 -97 32z m61 -37 c-11 -52 -37 -74 -49 -43 -9 25 14
75 36 75 17 0 19 -4 13 -32z"/>
<path d="M2967 680 c-49 -38 -43 -120 8 -120 13 0 27 5 30 10 5 8 11 7 21 -1
20 -16 21 -13 29 57 7 58 6 61 -16 67 -36 10 -44 9 -72 -13z m53 -44 c0 -35
-21 -63 -40 -51 -23 14 -3 85 25 85 10 0 15 -11 15 -34z"/>
<path d="M2737 683 c-3 -5 -8 -34 -11 -65 -6 -48 -5 -58 8 -58 20 0 22 6 30
73 6 47 5 57 -8 57 -8 0 -17 -3 -19 -7z"/>
<path d="M2803 668 c4 -13 9 -42 13 -65 5 -36 10 -43 29 -43 18 0 28 13 50 61
15 33 24 63 21 66 -13 13 -33 -8 -46 -46 -15 -46 -30 -38 -30 17 0 26 -4 32
-21 32 -17 0 -20 -5 -16 -22z"/>
<path d="M1744 459 c-3 -6 -1 -16 4 -21 13 -13 45 8 36 23 -7 12 -31 11 -40
-2z"/>
<path d="M2422 453 c2 -10 10 -18 18 -18 8 0 16 8 18 18 2 12 -3 17 -18 17
-15 0 -20 -5 -18 -17z"/>
<path d="M1596 378 c-4 -35 -10 -73 -13 -85 -4 -18 -1 -23 15 -23 15 0 21 9
26 35 6 29 11 35 31 35 16 0 25 6 25 15 0 9 -10 15 -26 15 -20 0 -25 4 -20 16
3 9 6 20 6 25 0 5 14 9 30 9 17 0 30 5 30 10 0 6 -22 10 -49 10 l-48 0 -7 -62z"/>
<path d="M1875 400 c-3 -6 -17 -7 -30 -4 -26 6 -28 3 -39 -83 -6 -38 -4 -43
14 -43 15 0 20 7 20 28 0 33 20 74 38 80 11 3 12 -7 7 -52 -6 -48 -5 -56 9
-56 15 0 19 9 30 79 6 35 -6 61 -30 61 -7 0 -16 -5 -19 -10z"/>
<path d="M1986 389 c-23 -18 -27 -27 -24 -68 3 -39 6 -46 26 -49 13 -2 29 2
37 8 9 8 15 8 20 0 15 -24 27 -2 31 54 5 63 -2 76 -42 76 -12 0 -33 -10 -48
-21z m57 -41 c-7 -38 -26 -63 -42 -54 -25 16 -1 86 29 86 17 0 19 -5 13 -32z"/>
<path d="M2185 400 c-3 -6 -17 -7 -30 -4 -25 6 -24 7 -40 -88 -5 -34 -4 -38
15 -38 15 0 20 7 20 28 0 33 20 74 38 80 11 3 12 -7 7 -52 -6 -48 -5 -56 9
-56 15 0 19 9 30 79 6 35 -6 61 -30 61 -7 0 -16 -5 -19 -10z"/>
<path d="M2296 389 c-20 -15 -26 -29 -26 -58 0 -20 5 -42 12 -49 18 -18 78
-16 78 3 0 9 -9 15 -25 15 -31 0 -39 18 -25 54 8 23 15 27 35 23 29 -5 45 11
24 24 -22 14 -44 10 -73 -12z"/>
<path d="M2506 389 c-20 -16 -26 -29 -26 -59 0 -20 6 -43 14 -49 19 -16 78
-10 84 8 3 10 -2 12 -19 8 -22 -6 -60 7 -49 16 3 2 23 10 45 18 45 17 57 45
29 66 -25 18 -47 16 -78 -8z m54 -18 c0 -12 -29 -35 -36 -28 -11 10 5 37 21
37 8 0 15 -4 15 -9z"/>
<path d="M2691 401 c-7 -5 -21 -6 -31 -4 -19 5 -20 2 -35 -89 -5 -34 -4 -38
15 -38 15 0 20 6 20 25 0 35 20 73 41 78 11 3 19 12 19 21 0 18 -8 20 -29 7z"/>
<path d="M2755 385 c-17 -16 -25 -35 -25 -57 0 -51 10 -59 66 -55 42 2 49 6
50 24 1 12 4 39 8 61 5 35 3 40 -17 46 -39 10 -57 6 -82 -19z m61 -37 c-11
-57 -46 -75 -46 -23 0 37 11 55 32 55 18 0 20 -4 14 -32z"/>
<path d="M1736 378 c-3 -13 -7 -42 -10 -65 -5 -37 -4 -43 13 -43 14 0 20 10
25 46 3 26 6 55 6 65 0 27 -29 24 -34 -3z"/>
<path d="M2406 363 c-10 -63 -7 -93 9 -93 9 0 16 14 20 38 4 20 9 49 11 65 5
22 2 27 -14 27 -15 0 -21 -9 -26 -37z"/>
</g>
</svg>
