<?xml version="1.0" encoding="UTF-8"?>
<svg xmlns="http://www.w3.org/2000/svg" xmlns:xlink="http://www.w3.org/1999/xlink" width="612pt" height="792pt" viewBox="0 0 612 792" version="1.1">
<g id="surface1">
<path style=" stroke:none;fill-rule:evenodd;fill:rgb(92.89856%,10.998535%,14.099121%);fill-opacity:1;" d="M 354.917969 351.480469 C 354.613281 354.089844 353.792969 366.609375 363.878906 378.847656 C 382.53125 401.488281 357.273438 425.761719 328.519531 419.878906 C 328.519531 419.878906 316.976563 422.21875 304.285156 422.21875 C 291.582031 422.21875 279.972656 419.878906 279.972656 419.878906 C 251.21875 425.761719 225.4375 401.488281 244.09375 378.847656 C 254.179688 366.609375 253.355469 354.089844 253.050781 351.480469 L 354.917969 351.480469 "/>
<path style="fill:none;stroke-width:9.5;stroke-linecap:butt;stroke-linejoin:miter;stroke:rgb(13.699341%,12.199402%,12.5%);stroke-opacity:1;stroke-miterlimit:3.8637;" d="M 3549.179688 4405.195313 C 3546.132813 4379.101563 3537.929688 4253.90625 3638.789063 4131.523438 C 3825.3125 3905.117188 3572.734375 3662.382813 3285.195313 3721.210938 C 3285.195313 3721.210938 3169.765625 3697.8125 3042.851563 3697.8125 C 2915.820313 3697.8125 2799.726563 3721.210938 2799.726563 3721.210938 C 2512.1875 3662.382813 2254.375 3905.117188 2440.9375 4131.523438 C 2541.796875 4253.90625 2533.554688 4379.101563 2530.507813 4405.195313 Z M 3549.179688 4405.195313 " transform="matrix(0.1,0,0,-0.1,0,792)"/>
<path style=" stroke:none;fill-rule:evenodd;fill:rgb(0%,58.399963%,85.499573%);fill-opacity:1;" d="M 293.636719 364.011719 L 290.992188 367.78125 C 290.992188 367.78125 280.082031 380.167969 283.746094 397.578125 C 283.746094 397.578125 273.5625 401.199219 267.183594 407.574219 C 263.101563 411.65625 266.78125 415.042969 269.609375 415.117188 C 271.566406 415.167969 275.355469 415.96875 278.652344 420.480469 L 285.742188 420.480469 C 285.742188 420.480469 283.167969 417.121094 284.863281 413.992188 C 286.058594 411.792969 290.246094 411.097656 290.246094 411.097656 C 290.246094 411.097656 288.277344 406.644531 291.46875 405.578125 C 291.46875 405.578125 283.234375 384.230469 295.65625 368.445313 L 293.636719 364.011719 "/>
<path style="fill:none;stroke-width:9.501;stroke-linecap:butt;stroke-linejoin:miter;stroke:rgb(13.699341%,12.199402%,12.5%);stroke-opacity:1;stroke-miterlimit:3.8637;" d="M 2936.367188 4279.882813 L 2909.921875 4242.1875 C 2909.921875 4242.1875 2800.820313 4118.320313 2837.460938 3944.21875 C 2837.460938 3944.21875 2735.625 3908.007813 2671.835938 3844.257813 C 2631.015625 3803.4375 2667.8125 3769.570313 2696.09375 3768.828125 C 2715.664063 3768.320313 2753.554688 3760.3125 2786.523438 3715.195313 L 2857.421875 3715.195313 C 2857.421875 3715.195313 2831.679688 3748.789063 2848.632813 3780.078125 C 2860.585938 3802.070313 2902.460938 3809.023438 2902.460938 3809.023438 C 2902.460938 3809.023438 2882.773438 3853.554688 2914.6875 3864.21875 C 2914.6875 3864.21875 2832.34375 4077.695313 2956.5625 4235.546875 Z M 2936.367188 4279.882813 " transform="matrix(0.1,0,0,-0.1,0,792)"/>
<path style=" stroke:none;fill-rule:evenodd;fill:rgb(0%,58.399963%,85.499573%);fill-opacity:1;" d="M 314.855469 364.011719 L 317.503906 367.78125 C 317.503906 367.78125 328.410156 380.167969 324.746094 397.578125 C 324.746094 397.578125 334.933594 401.199219 341.3125 407.574219 C 345.390625 411.65625 341.710938 415.042969 338.882813 415.117188 C 336.929688 415.167969 333.136719 415.96875 329.839844 420.480469 L 322.753906 420.480469 C 322.753906 420.480469 325.324219 417.121094 323.628906 413.992188 C 322.4375 411.792969 318.246094 411.097656 318.246094 411.097656 C 318.246094 411.097656 320.214844 406.644531 317.023438 405.578125 C 317.023438 405.578125 325.261719 384.230469 312.835938 368.445313 L 314.855469 364.011719 "/>
<path style="fill:none;stroke-width:9.501;stroke-linecap:butt;stroke-linejoin:miter;stroke:rgb(13.699341%,12.199402%,12.5%);stroke-opacity:1;stroke-miterlimit:3.8637;" d="M 3148.554688 4279.882813 L 3175.039063 4242.1875 C 3175.039063 4242.1875 3284.101563 4118.320313 3247.460938 3944.21875 C 3247.460938 3944.21875 3349.335938 3908.007813 3413.125 3844.257813 C 3453.90625 3803.4375 3417.109375 3769.570313 3388.828125 3768.828125 C 3369.296875 3768.320313 3331.367188 3760.3125 3298.398438 3715.195313 L 3227.539063 3715.195313 C 3227.539063 3715.195313 3253.242188 3748.789063 3236.289063 3780.078125 C 3224.375 3802.070313 3182.460938 3809.023438 3182.460938 3809.023438 C 3182.460938 3809.023438 3202.148438 3853.554688 3170.234375 3864.21875 C 3170.234375 3864.21875 3252.617188 4077.695313 3128.359375 4235.546875 Z M 3148.554688 4279.882813 " transform="matrix(0.1,0,0,-0.1,0,792)"/>
<path style=" stroke:none;fill-rule:evenodd;fill:rgb(92.89856%,10.998535%,14.099121%);fill-opacity:1;" d="M 326.34375 415.175781 C 326.34375 415.175781 327.964844 410.769531 331.3125 408.195313 C 332.949219 406.941406 335.691406 407.414063 334.3125 409.910156 C 333.9375 410.589844 329.964844 413.230469 327.292969 416.410156 C 326.804688 416.996094 326.34375 415.175781 326.34375 415.175781 Z M 287.285156 412.214844 C 287.285156 412.214844 286.617188 407.5625 283.875 404.355469 C 282.535156 402.785156 279.753906 402.679688 280.585938 405.40625 C 280.808594 406.148438 284.148438 409.5625 286.097656 413.226563 C 286.453125 413.898438 287.285156 412.214844 287.285156 412.214844 Z M 282.148438 415.175781 C 282.148438 415.175781 280.527344 410.769531 277.179688 408.195313 C 275.542969 406.941406 272.800781 407.414063 274.179688 409.910156 C 274.554688 410.589844 278.527344 413.230469 281.199219 416.410156 C 281.6875 416.996094 282.148438 415.175781 282.148438 415.175781 Z M 321.207031 412.214844 C 321.207031 412.214844 321.878906 407.5625 324.617188 404.355469 C 325.957031 402.785156 328.738281 402.679688 327.910156 405.40625 C 327.683594 406.148438 324.34375 409.5625 322.394531 413.226563 C 322.039063 413.898438 321.207031 412.214844 321.207031 412.214844 "/>
<path style="fill:none;stroke-width:9.501;stroke-linecap:butt;stroke-linejoin:miter;stroke:rgb(13.699341%,12.199402%,12.5%);stroke-opacity:1;stroke-miterlimit:3.8637;" d="M 3263.4375 3768.242188 C 3263.4375 3768.242188 3279.648438 3812.304688 3313.125 3838.046875 C 3329.492188 3850.585938 3356.914063 3845.859375 3343.125 3820.898438 C 3339.375 3814.101563 3299.648438 3787.695313 3272.929688 3755.898438 C 3268.046875 3750.039063 3263.4375 3768.242188 3263.4375 3768.242188 Z M 2872.851563 3797.851563 C 2872.851563 3797.851563 2866.171875 3844.375 2838.75 3876.445313 C 2825.351563 3892.148438 2797.539063 3893.203125 2805.859375 3865.9375 C 2808.085938 3858.515625 2841.484375 3824.375 2860.976563 3787.734375 C 2864.53125 3781.015625 2872.851563 3797.851563 2872.851563 3797.851563 Z M 2821.484375 3768.242188 C 2821.484375 3768.242188 2805.273438 3812.304688 2771.796875 3838.046875 C 2755.429688 3850.585938 2728.007813 3845.859375 2741.796875 3820.898438 C 2745.546875 3814.101563 2785.273438 3787.695313 2811.992188 3755.898438 C 2816.875 3750.039063 2821.484375 3768.242188 2821.484375 3768.242188 Z M 3212.070313 3797.851563 C 3212.070313 3797.851563 3218.789063 3844.375 3246.171875 3876.445313 C 3259.570313 3892.148438 3287.382813 3893.203125 3279.101563 3865.9375 C 3276.835938 3858.515625 3243.4375 3824.375 3223.945313 3787.734375 C 3220.390625 3781.015625 3212.070313 3797.851563 3212.070313 3797.851563 Z M 3212.070313 3797.851563 " transform="matrix(0.1,0,0,-0.1,0,792)"/>
<path style=" stroke:none;fill-rule:evenodd;fill:rgb(100%,94.898987%,0%);fill-opacity:1;" d="M 317.648438 407.007813 C 317.648438 407.007813 326.203125 384.085938 313.28125 367.671875 C 312.121094 367.453125 310.925781 366.738281 309.632813 365.871094 C 309.632813 365.871094 307.636719 367.566406 304.269531 367.558594 C 300.898438 367.566406 298.902344 365.871094 298.902344 365.871094 C 297.394531 366.878906 295.976563 367.515625 294.660156 367.667969 C 281.738281 384.082031 290.558594 407.144531 290.558594 407.144531 C 304.179688 401.96875 317.328125 406.855469 317.648438 407.007813 "/>
<path style="fill:none;stroke-width:9.501;stroke-linecap:butt;stroke-linejoin:miter;stroke:rgb(13.699341%,12.199402%,12.5%);stroke-opacity:1;stroke-miterlimit:3.8637;" d="M 3176.484375 3849.921875 C 3176.484375 3849.921875 3262.03125 4079.140625 3132.8125 4243.28125 C 3121.210938 4245.46875 3109.257813 4252.617188 3096.328125 4261.289063 C 3096.328125 4261.289063 3076.367188 4244.335938 3042.695313 4244.414063 C 3008.984375 4244.335938 2989.023438 4261.289063 2989.023438 4261.289063 C 2973.945313 4251.210938 2959.765625 4244.84375 2946.601563 4243.320313 C 2817.382813 4079.179688 2905.585938 3848.554688 2905.585938 3848.554688 C 3041.796875 3900.3125 3173.28125 3851.445313 3176.484375 3849.921875 Z M 3176.484375 3849.921875 " transform="matrix(0.1,0,0,-0.1,0,792)"/>
<path style=" stroke:none;fill-rule:nonzero;fill:rgb(100%,100%,100%);fill-opacity:1;" d="M 313.695313 392.4375 C 313.695313 391.148438 314.738281 390.109375 316.023438 390.109375 C 317.3125 390.109375 318.355469 391.148438 318.355469 392.4375 C 318.355469 393.722656 317.3125 394.765625 316.023438 394.765625 C 314.738281 394.765625 313.695313 393.722656 313.695313 392.4375 "/>
<path style="fill:none;stroke-width:9.501;stroke-linecap:butt;stroke-linejoin:miter;stroke:rgb(13.699341%,12.199402%,12.5%);stroke-opacity:1;stroke-miterlimit:3.8637;" d="M 3136.953125 3995.625 C 3136.953125 4008.515625 3147.382813 4018.90625 3160.234375 4018.90625 C 3173.125 4018.90625 3183.554688 4008.515625 3183.554688 3995.625 C 3183.554688 3982.773438 3173.125 3972.34375 3160.234375 3972.34375 C 3147.382813 3972.34375 3136.953125 3982.773438 3136.953125 3995.625 Z M 3136.953125 3995.625 " transform="matrix(0.1,0,0,-0.1,0,792)"/>
<path style=" stroke:none;fill-rule:evenodd;fill:rgb(96.899414%,57.998657%,11.399841%);fill-opacity:1;" d="M 304.023438 354.003906 C 304.023438 354.003906 291.855469 353.566406 283.175781 358.117188 C 283.175781 358.117188 279.441406 360.246094 279.265625 362.828125 C 279.09375 365.410156 280.171875 367.371094 283.25 367.574219 C 286.3125 367.777344 287.820313 365.957031 287.820313 365.957031 C 287.820313 365.957031 292.753906 370.800781 298.863281 366.71875 C 298.863281 366.71875 300.78125 368.347656 304.023438 368.339844 C 307.265625 368.347656 309.183594 366.71875 309.183594 366.71875 C 315.289063 370.800781 320.226563 365.957031 320.226563 365.957031 C 320.226563 365.957031 321.734375 367.777344 324.796875 367.574219 C 327.878906 367.371094 328.953125 365.410156 328.777344 362.828125 C 328.605469 360.246094 324.871094 358.117188 324.871094 358.117188 C 316.191406 353.566406 304.023438 354.003906 304.023438 354.003906 "/>
<path style="fill:none;stroke-width:9.501;stroke-linecap:butt;stroke-linejoin:miter;stroke:rgb(13.699341%,12.199402%,12.5%);stroke-opacity:1;stroke-miterlimit:3.8637;" d="M 3040.234375 4379.960938 C 3040.234375 4379.960938 2918.554688 4384.335938 2831.757813 4338.828125 C 2831.757813 4338.828125 2794.414063 4317.539063 2792.65625 4291.71875 C 2790.9375 4265.898438 2801.71875 4246.289063 2832.5 4244.257813 C 2863.125 4242.226563 2878.203125 4260.429688 2878.203125 4260.429688 C 2878.203125 4260.429688 2927.539063 4211.992188 2988.632813 4252.8125 C 2988.632813 4252.8125 3007.8125 4236.523438 3040.234375 4236.601563 C 3072.65625 4236.523438 3091.835938 4252.8125 3091.835938 4252.8125 C 3152.890625 4211.992188 3202.265625 4260.429688 3202.265625 4260.429688 C 3202.265625 4260.429688 3217.34375 4242.226563 3247.96875 4244.257813 C 3278.789063 4246.289063 3289.53125 4265.898438 3287.773438 4291.71875 C 3286.054688 4317.539063 3248.710938 4338.828125 3248.710938 4338.828125 C 3161.914063 4384.335938 3040.234375 4379.960938 3040.234375 4379.960938 Z M 3040.234375 4379.960938 " transform="matrix(0.1,0,0,-0.1,0,792)"/>
<path style=" stroke:none;fill-rule:evenodd;fill:rgb(0%,58.399963%,85.499573%);fill-opacity:1;" d="M 259.011719 369.550781 L 275.597656 369.550781 C 278.222656 369.550781 280.351563 371.679688 280.351563 374.308594 L 280.351563 385.488281 C 280.351563 388.113281 278.222656 390.242188 275.597656 390.242188 L 259.011719 390.242188 C 256.386719 390.242188 254.253906 388.113281 254.253906 385.488281 L 254.253906 374.308594 C 254.253906 371.679688 256.386719 369.550781 259.011719 369.550781 "/>
<path style="fill:none;stroke-width:9.501;stroke-linecap:butt;stroke-linejoin:miter;stroke:rgb(13.699341%,12.199402%,12.5%);stroke-opacity:1;stroke-miterlimit:3.8637;" d="M 2590.117188 4224.492188 L 2755.976563 4224.492188 C 2782.226563 4224.492188 2803.515625 4203.203125 2803.515625 4176.914063 L 2803.515625 4065.117188 C 2803.515625 4038.867188 2782.226563 4017.578125 2755.976563 4017.578125 L 2590.117188 4017.578125 C 2563.867188 4017.578125 2542.539063 4038.867188 2542.539063 4065.117188 L 2542.539063 4176.914063 C 2542.539063 4203.203125 2563.867188 4224.492188 2590.117188 4224.492188 Z M 2590.117188 4224.492188 " transform="matrix(0.1,0,0,-0.1,0,792)"/>
<path style=" stroke:none;fill-rule:nonzero;fill:rgb(13.699341%,12.199402%,12.5%);fill-opacity:1;" d="M 260.910156 372.234375 L 274.050781 372.234375 C 276.027344 372.234375 277.632813 373.839844 277.632813 375.816406 L 277.632813 383.976563 C 277.632813 385.957031 276.027344 387.5625 274.050781 387.5625 L 260.910156 387.5625 C 258.929688 387.5625 257.324219 385.957031 257.324219 383.976563 L 257.324219 375.816406 C 257.324219 373.839844 258.929688 372.234375 260.910156 372.234375 "/>
<path style="fill:none;stroke-width:9.501;stroke-linecap:butt;stroke-linejoin:miter;stroke:rgb(13.699341%,12.199402%,12.5%);stroke-opacity:1;stroke-miterlimit:3.8637;" d="M 2609.101563 4197.65625 L 2740.507813 4197.65625 C 2760.273438 4197.65625 2776.328125 4181.601563 2776.328125 4161.835938 L 2776.328125 4080.234375 C 2776.328125 4060.429688 2760.273438 4044.375 2740.507813 4044.375 L 2609.101563 4044.375 C 2589.296875 4044.375 2573.242188 4060.429688 2573.242188 4080.234375 L 2573.242188 4161.835938 C 2573.242188 4181.601563 2589.296875 4197.65625 2609.101563 4197.65625 Z M 2609.101563 4197.65625 " transform="matrix(0.1,0,0,-0.1,0,792)"/>
<path style=" stroke:none;fill-rule:evenodd;fill:rgb(96.899414%,57.998657%,11.399841%);fill-opacity:1;" d="M 277.632813 381.933594 C 271.703125 381.339844 269.636719 374.394531 269.136719 372.234375 L 274.050781 372.234375 C 276.027344 372.234375 277.632813 373.839844 277.632813 375.816406 L 277.632813 381.933594 "/>
<path style="fill:none;stroke-width:9.501;stroke-linecap:butt;stroke-linejoin:miter;stroke:rgb(13.699341%,12.199402%,12.5%);stroke-opacity:1;stroke-miterlimit:3.8637;" d="M 2776.328125 4100.664063 C 2717.03125 4106.601563 2696.367188 4176.054688 2691.367188 4197.65625 L 2740.507813 4197.65625 C 2760.273438 4197.65625 2776.328125 4181.601563 2776.328125 4161.835938 Z M 2776.328125 4100.664063 " transform="matrix(0.1,0,0,-0.1,0,792)"/>
<path style=" stroke:none;fill-rule:evenodd;fill:rgb(96.899414%,57.998657%,11.399841%);fill-opacity:1;" d="M 265.898438 372.234375 C 265.515625 374.210938 263.648438 381.648438 257.324219 381.960938 L 257.324219 375.816406 C 257.324219 373.839844 258.929688 372.234375 260.910156 372.234375 L 265.898438 372.234375 "/>
<path style="fill:none;stroke-width:9.501;stroke-linecap:butt;stroke-linejoin:miter;stroke:rgb(13.699341%,12.199402%,12.5%);stroke-opacity:1;stroke-miterlimit:3.8637;" d="M 2658.984375 4197.65625 C 2655.15625 4177.890625 2636.484375 4103.515625 2573.242188 4100.390625 L 2573.242188 4161.835938 C 2573.242188 4181.601563 2589.296875 4197.65625 2609.101563 4197.65625 Z M 2658.984375 4197.65625 " transform="matrix(0.1,0,0,-0.1,0,792)"/>
<path style=" stroke:none;fill-rule:evenodd;fill:rgb(0%,58.399963%,85.499573%);fill-opacity:1;" d="M 332.804688 369.550781 L 349.386719 369.550781 C 352.015625 369.550781 354.144531 371.679688 354.144531 374.308594 L 354.144531 385.488281 C 354.144531 388.113281 352.015625 390.242188 349.386719 390.242188 L 332.804688 390.242188 C 330.179688 390.242188 328.046875 388.113281 328.046875 385.488281 L 328.046875 374.308594 C 328.046875 371.679688 330.179688 369.550781 332.804688 369.550781 "/>
<path style="fill:none;stroke-width:9.501;stroke-linecap:butt;stroke-linejoin:miter;stroke:rgb(13.699341%,12.199402%,12.5%);stroke-opacity:1;stroke-miterlimit:3.8637;" d="M 3328.046875 4224.492188 L 3493.867188 4224.492188 C 3520.15625 4224.492188 3541.445313 4203.203125 3541.445313 4176.914063 L 3541.445313 4065.117188 C 3541.445313 4038.867188 3520.15625 4017.578125 3493.867188 4017.578125 L 3328.046875 4017.578125 C 3301.796875 4017.578125 3280.46875 4038.867188 3280.46875 4065.117188 L 3280.46875 4176.914063 C 3280.46875 4203.203125 3301.796875 4224.492188 3328.046875 4224.492188 Z M 3328.046875 4224.492188 " transform="matrix(0.1,0,0,-0.1,0,792)"/>
<path style=" stroke:none;fill-rule:nonzero;fill:rgb(13.699341%,12.199402%,12.5%);fill-opacity:1;" d="M 334.703125 372.234375 L 347.84375 372.234375 C 349.820313 372.234375 351.425781 373.839844 351.425781 375.816406 L 351.425781 383.976563 C 351.425781 385.957031 349.820313 387.5625 347.84375 387.5625 L 334.703125 387.5625 C 332.722656 387.5625 331.117188 385.957031 331.117188 383.976563 L 331.117188 375.816406 C 331.117188 373.839844 332.722656 372.234375 334.703125 372.234375 "/>
<path style="fill:none;stroke-width:9.501;stroke-linecap:butt;stroke-linejoin:miter;stroke:rgb(13.699341%,12.199402%,12.5%);stroke-opacity:1;stroke-miterlimit:3.8637;" d="M 3347.03125 4197.65625 L 3478.4375 4197.65625 C 3498.203125 4197.65625 3514.257813 4181.601563 3514.257813 4161.835938 L 3514.257813 4080.234375 C 3514.257813 4060.429688 3498.203125 4044.375 3478.4375 4044.375 L 3347.03125 4044.375 C 3327.226563 4044.375 3311.171875 4060.429688 3311.171875 4080.234375 L 3311.171875 4161.835938 C 3311.171875 4181.601563 3327.226563 4197.65625 3347.03125 4197.65625 Z M 3347.03125 4197.65625 " transform="matrix(0.1,0,0,-0.1,0,792)"/>
<path style=" stroke:none;fill-rule:evenodd;fill:rgb(96.899414%,57.998657%,11.399841%);fill-opacity:1;" d="M 351.425781 381.933594 C 345.496094 381.339844 343.429688 374.394531 342.925781 372.234375 L 347.839844 372.234375 C 349.820313 372.234375 351.425781 373.839844 351.425781 375.816406 L 351.425781 381.933594 "/>
<path style="fill:none;stroke-width:9.501;stroke-linecap:butt;stroke-linejoin:miter;stroke:rgb(13.699341%,12.199402%,12.5%);stroke-opacity:1;stroke-miterlimit:3.8637;" d="M 3514.257813 4100.664063 C 3454.960938 4106.601563 3434.296875 4176.054688 3429.257813 4197.65625 L 3478.398438 4197.65625 C 3498.203125 4197.65625 3514.257813 4181.601563 3514.257813 4161.835938 Z M 3514.257813 4100.664063 " transform="matrix(0.1,0,0,-0.1,0,792)"/>
<path style=" stroke:none;fill-rule:evenodd;fill:rgb(96.899414%,57.998657%,11.399841%);fill-opacity:1;" d="M 339.691406 372.234375 C 339.308594 374.210938 337.441406 381.648438 331.117188 381.960938 L 331.117188 375.816406 C 331.117188 373.839844 332.722656 372.234375 334.703125 372.234375 L 339.691406 372.234375 "/>
<path style="fill:none;stroke-width:9.501;stroke-linecap:butt;stroke-linejoin:miter;stroke:rgb(13.699341%,12.199402%,12.5%);stroke-opacity:1;stroke-miterlimit:3.8637;" d="M 3396.914063 4197.65625 C 3393.085938 4177.890625 3374.414063 4103.515625 3311.171875 4100.390625 L 3311.171875 4161.835938 C 3311.171875 4181.601563 3327.226563 4197.65625 3347.03125 4197.65625 Z M 3396.914063 4197.65625 " transform="matrix(0.1,0,0,-0.1,0,792)"/>
<path style=" stroke:none;fill-rule:evenodd;fill:rgb(100%,90.19928%,79.598999%);fill-opacity:1;" d="M 304.023438 402.414063 C 299.519531 402.328125 294.78125 402.992188 291.050781 404.96875 C 287.511719 406.84375 287.386719 410.035156 287.386719 410.035156 C 287.386719 410.035156 282.863281 410.628906 281.199219 413.367188 C 279.53125 416.105469 281.453125 419.375 283.449219 419.867188 C 291.910156 421.960938 303.703125 421.90625 303.980469 421.765625 C 304.253906 421.90625 316.566406 422.269531 324.601563 419.867188 C 326.570313 419.28125 328.519531 416.105469 326.851563 413.367188 C 325.1875 410.628906 320.664063 410.035156 320.664063 410.035156 C 320.664063 410.035156 320.539063 406.84375 316.996094 404.96875 C 313.269531 402.992188 308.53125 402.328125 304.023438 402.414063 "/>
<path style="fill:none;stroke-width:9.501;stroke-linecap:butt;stroke-linejoin:miter;stroke:rgb(13.699341%,12.199402%,12.5%);stroke-opacity:1;stroke-miterlimit:3.8637;" d="M 3040.234375 3895.859375 C 2995.195313 3896.71875 2947.8125 3890.078125 2910.507813 3870.3125 C 2875.117188 3851.5625 2873.867188 3819.648438 2873.867188 3819.648438 C 2873.867188 3819.648438 2828.632813 3813.710938 2811.992188 3786.328125 C 2795.3125 3758.945313 2814.53125 3726.25 2834.492188 3721.328125 C 2919.101563 3700.390625 3037.03125 3700.9375 3039.804688 3702.34375 C 3042.539063 3700.9375 3165.664063 3697.304688 3246.015625 3721.328125 C 3265.703125 3727.1875 3285.195313 3758.945313 3268.515625 3786.328125 C 3251.875 3813.710938 3206.640625 3819.648438 3206.640625 3819.648438 C 3206.640625 3819.648438 3205.390625 3851.5625 3169.960938 3870.3125 C 3132.695313 3890.078125 3085.3125 3896.71875 3040.234375 3895.859375 Z M 3040.234375 3895.859375 " transform="matrix(0.1,0,0,-0.1,0,792)"/>
<path style="fill:none;stroke-width:9.501;stroke-linecap:butt;stroke-linejoin:miter;stroke:rgb(13.699341%,12.199402%,12.5%);stroke-opacity:1;stroke-miterlimit:3.8637;" d="M 2872.539063 3820.351563 C 2872.539063 3820.351563 3010.117188 3845.3125 3208.671875 3820.3125 " transform="matrix(0.1,0,0,-0.1,0,792)"/>
<path style=" stroke:none;fill-rule:evenodd;fill:rgb(92.89856%,10.998535%,14.099121%);fill-opacity:1;" d="M 326.363281 310.316406 L 326.363281 305.980469 C 324.261719 305.980469 322.546875 304.277344 322.546875 302.175781 L 322.546875 298.59375 C 322.546875 296.488281 324.25 294.785156 326.355469 294.785156 L 352.164063 294.785156 C 354.269531 294.785156 355.976563 296.488281 355.976563 298.59375 L 355.976563 302.175781 C 355.976563 304.277344 354.269531 305.980469 352.164063 305.980469 L 352.164063 324.632813 C 343.433594 318.789063 334.148438 313.949219 326.363281 310.316406 "/>
<path style="fill:none;stroke-width:24.228;stroke-linecap:butt;stroke-linejoin:miter;stroke:rgb(13.699341%,12.199402%,12.5%);stroke-opacity:1;stroke-miterlimit:3.8637;" d="M 3263.632813 4816.835938 L 3263.632813 4860.195313 C 3242.617188 4860.195313 3225.46875 4877.226563 3225.46875 4898.242188 L 3225.46875 4934.0625 C 3225.46875 4955.117188 3242.5 4972.148438 3263.554688 4972.148438 L 3521.640625 4972.148438 C 3542.695313 4972.148438 3559.765625 4955.117188 3559.765625 4934.0625 L 3559.765625 4898.242188 C 3559.765625 4877.226563 3542.695313 4860.195313 3521.640625 4860.195313 L 3521.640625 4673.671875 C 3434.335938 4732.109375 3341.484375 4780.507813 3263.632813 4816.835938 Z M 3263.632813 4816.835938 " transform="matrix(0.1,0,0,-0.1,0,792)"/>
<path style="fill:none;stroke-width:24.228;stroke-linecap:butt;stroke-linejoin:miter;stroke:rgb(13.699341%,12.199402%,12.5%);stroke-opacity:1;stroke-miterlimit:3.8637;" d="M 3549.179688 4405.195313 C 3546.132813 4379.101563 3537.929688 4253.90625 3638.789063 4131.523438 C 3825.3125 3905.117188 3572.734375 3662.382813 3285.195313 3721.210938 C 3285.195313 3721.210938 3169.765625 3697.8125 3042.851563 3697.8125 C 2915.820313 3697.8125 2799.726563 3721.210938 2799.726563 3721.210938 C 2512.1875 3662.382813 2254.375 3905.117188 2440.9375 4131.523438 C 2541.796875 4253.90625 2533.554688 4379.101563 2530.507813 4405.195313 " transform="matrix(0.1,0,0,-0.1,0,792)"/>
<path style=" stroke:none;fill-rule:evenodd;fill:rgb(71.798706%,43.099976%,6.698608%);fill-opacity:1;" d="M 303.859375 301.792969 C 302.496094 301.792969 299.679688 302.6875 299.679688 302.6875 C 299.679688 302.6875 260.8125 316.203125 239.382813 337.632813 C 233.335938 343.679688 235.953125 351.480469 243.589844 351.480469 C 249.539063 351.480469 303.863281 351.480469 303.863281 351.480469 C 303.863281 351.480469 358.179688 351.480469 364.132813 351.480469 C 371.703125 351.480469 374.390625 343.683594 368.339844 337.632813 C 346.910156 316.203125 308.039063 302.6875 308.039063 302.6875 C 308.039063 302.6875 305.222656 301.792969 303.859375 301.792969 "/>
<path style="fill:none;stroke-width:24.228;stroke-linecap:butt;stroke-linejoin:miter;stroke:rgb(13.699341%,12.199402%,12.5%);stroke-opacity:1;stroke-miterlimit:3.8637;" d="M 3038.59375 4902.070313 C 3024.960938 4902.070313 2996.796875 4893.125 2996.796875 4893.125 C 2996.796875 4893.125 2608.125 4757.96875 2393.828125 4543.671875 C 2333.359375 4483.203125 2359.53125 4405.195313 2435.898438 4405.195313 C 2495.390625 4405.195313 3038.632813 4405.195313 3038.632813 4405.195313 C 3038.632813 4405.195313 3581.796875 4405.195313 3641.328125 4405.195313 C 3717.03125 4405.195313 3743.90625 4483.164063 3683.398438 4543.671875 C 3469.101563 4757.96875 3080.390625 4893.125 3080.390625 4893.125 C 3080.390625 4893.125 3052.226563 4902.070313 3038.59375 4902.070313 Z M 3038.59375 4902.070313 " transform="matrix(0.1,0,0,-0.1,0,792)"/>
<path style="fill:none;stroke-width:9.501;stroke-linecap:butt;stroke-linejoin:miter;stroke:rgb(13.699341%,12.199402%,12.5%);stroke-opacity:1;stroke-miterlimit:3.8637;" d="M 3227.226563 4833.4375 C 3238.945313 4815.195313 3251.601563 4797.421875 3264.375 4782.929688 C 3279.140625 4766.171875 3292.617188 4760.664063 3303.984375 4760.664063 C 3314.453125 4760.664063 3326.757813 4765.351563 3340.234375 4779.296875 " transform="matrix(0.1,0,0,-0.1,0,792)"/>
<path style="fill:none;stroke-width:9.501;stroke-linecap:butt;stroke-linejoin:miter;stroke:rgb(13.699341%,12.199402%,12.5%);stroke-opacity:1;stroke-miterlimit:3.8637;" d="M 2737.03125 4779.375 C 2750.546875 4765.390625 2762.890625 4760.664063 2773.398438 4760.664063 C 2784.726563 4760.664063 2798.203125 4766.171875 2813.007813 4782.929688 C 2825.78125 4797.460938 2838.476563 4815.273438 2850.15625 4833.554688 " transform="matrix(0.1,0,0,-0.1,0,792)"/>
<path style="fill:none;stroke-width:9.501;stroke-linecap:butt;stroke-linejoin:miter;stroke:rgb(13.699341%,12.199402%,12.5%);stroke-opacity:1;stroke-miterlimit:3.8637;" d="M 2939.140625 4871.210938 C 2956.015625 4841.601563 2977.421875 4807.539063 2999.0625 4782.929688 C 3013.828125 4766.171875 3027.34375 4760.664063 3038.671875 4760.664063 C 3050.039063 4760.664063 3063.515625 4766.171875 3078.28125 4782.929688 C 3099.921875 4807.539063 3121.328125 4841.5625 3138.125 4871.210938 " transform="matrix(0.1,0,0,-0.1,0,792)"/>
<path style="fill:none;stroke-width:9.501;stroke-linecap:butt;stroke-linejoin:miter;stroke:rgb(13.699341%,12.199402%,12.5%);stroke-opacity:1;stroke-miterlimit:3.8637;" d="M 3038.59375 4760.664063 C 3038.59375 4760.664063 3084.648438 4662.382813 3131.71875 4608.90625 C 3146.484375 4592.148438 3159.960938 4586.640625 3171.328125 4586.640625 C 3182.695313 4586.640625 3196.171875 4592.148438 3210.9375 4608.90625 C 3258.007813 4662.382813 3303.90625 4760.664063 3303.90625 4760.664063 " transform="matrix(0.1,0,0,-0.1,0,792)"/>
<path style="fill:none;stroke-width:9.501;stroke-linecap:butt;stroke-linejoin:miter;stroke:rgb(13.699341%,12.199402%,12.5%);stroke-opacity:1;stroke-miterlimit:3.8637;" d="M 3303.90625 4760.664063 C 3303.90625 4760.664063 3349.921875 4662.382813 3397.03125 4608.90625 C 3411.796875 4592.148438 3425.273438 4586.640625 3436.601563 4586.640625 C 3447.96875 4586.640625 3461.484375 4592.148438 3476.210938 4608.90625 C 3492.1875 4627.03125 3508.007813 4650.3125 3521.953125 4673.203125 " transform="matrix(0.1,0,0,-0.1,0,792)"/>
<path style="fill:none;stroke-width:9.501;stroke-linecap:butt;stroke-linejoin:miter;stroke:rgb(13.699341%,12.199402%,12.5%);stroke-opacity:1;stroke-miterlimit:3.8637;" d="M 2555.3125 4673.242188 C 2569.296875 4650.390625 2585.15625 4627.070313 2601.132813 4608.90625 C 2615.898438 4592.148438 2629.375 4586.640625 2640.742188 4586.640625 C 2652.109375 4586.640625 2665.585938 4592.148438 2680.351563 4608.90625 C 2727.382813 4662.382813 2773.28125 4760.664063 2773.28125 4760.664063 " transform="matrix(0.1,0,0,-0.1,0,792)"/>
<path style="fill:none;stroke-width:9.501;stroke-linecap:butt;stroke-linejoin:miter;stroke:rgb(13.699341%,12.199402%,12.5%);stroke-opacity:1;stroke-miterlimit:3.8637;" d="M 2773.320313 4760.664063 C 2773.320313 4760.664063 2819.335938 4662.382813 2866.40625 4608.90625 C 2881.171875 4592.148438 2894.6875 4586.640625 2906.054688 4586.640625 C 2917.382813 4586.640625 2930.898438 4592.148438 2945.625 4608.90625 C 2992.695313 4662.382813 3038.59375 4760.664063 3038.59375 4760.664063 " transform="matrix(0.1,0,0,-0.1,0,792)"/>
<path style="fill:none;stroke-width:9.501;stroke-linecap:butt;stroke-linejoin:miter;stroke:rgb(13.699341%,12.199402%,12.5%);stroke-opacity:1;stroke-miterlimit:3.8637;" d="M 3171.25 4586.640625 C 3171.25 4586.640625 3217.304688 4488.398438 3264.375 4434.882813 C 3279.140625 4418.125 3292.617188 4412.65625 3303.984375 4412.65625 C 3315.3125 4412.65625 3328.828125 4418.125 3343.554688 4434.882813 C 3390.625 4488.359375 3436.523438 4586.640625 3436.523438 4586.640625 " transform="matrix(0.1,0,0,-0.1,0,792)"/>
<path style="fill:none;stroke-width:9.501;stroke-linecap:butt;stroke-linejoin:miter;stroke:rgb(13.699341%,12.199402%,12.5%);stroke-opacity:1;stroke-miterlimit:3.8637;" d="M 2640.664063 4586.640625 C 2640.664063 4586.640625 2686.679688 4488.398438 2733.789063 4434.882813 C 2748.554688 4418.125 2762.03125 4412.65625 2773.398438 4412.65625 C 2784.726563 4412.65625 2798.203125 4418.125 2813.007813 4434.882813 C 2860.039063 4488.359375 2905.9375 4586.640625 2905.9375 4586.640625 " transform="matrix(0.1,0,0,-0.1,0,792)"/>
<path style="fill:none;stroke-width:9.501;stroke-linecap:butt;stroke-linejoin:miter;stroke:rgb(13.699341%,12.199402%,12.5%);stroke-opacity:1;stroke-miterlimit:3.8637;" d="M 2905.976563 4586.640625 C 2905.976563 4586.640625 2951.992188 4488.398438 2999.0625 4434.882813 C 3013.828125 4418.125 3027.34375 4412.65625 3038.671875 4412.65625 C 3050.039063 4412.65625 3063.515625 4418.125 3078.28125 4434.882813 C 3125.351563 4488.359375 3171.25 4586.640625 3171.25 4586.640625 " transform="matrix(0.1,0,0,-0.1,0,792)"/>
<path style="fill:none;stroke-width:9.501;stroke-linecap:butt;stroke-linejoin:miter;stroke:rgb(13.699341%,12.199402%,12.5%);stroke-opacity:1;stroke-miterlimit:3.8637;" d="M 2396.054688 4545.859375 C 2413.90625 4512.578125 2441.015625 4466.09375 2468.476563 4434.882813 C 2483.242188 4418.125 2496.71875 4412.65625 2508.085938 4412.65625 C 2519.414063 4412.65625 2532.929688 4418.125 2547.695313 4434.882813 C 2594.765625 4488.359375 2640.664063 4586.640625 2640.664063 4586.640625 " transform="matrix(0.1,0,0,-0.1,0,792)"/>
<path style="fill:none;stroke-width:9.501;stroke-linecap:butt;stroke-linejoin:miter;stroke:rgb(13.699341%,12.199402%,12.5%);stroke-opacity:1;stroke-miterlimit:3.8637;" d="M 3436.523438 4586.640625 C 3436.523438 4586.640625 3482.578125 4488.398438 3529.648438 4434.882813 C 3544.414063 4418.125 3557.890625 4412.65625 3569.257813 4412.65625 C 3580.625 4412.65625 3594.101563 4418.125 3608.867188 4434.882813 C 3636.328125 4466.09375 3663.398438 4512.578125 3681.171875 4545.859375 " transform="matrix(0.1,0,0,-0.1,0,792)"/>
<path style=" stroke:none;fill-rule:evenodd;fill:rgb(92.89856%,10.998535%,14.099121%);fill-opacity:1;" d="M 435.996094 445.679688 C 435.996094 444.761719 435.742188 443.9375 435.234375 443.203125 C 434.722656 442.4375 434.058594 442.050781 433.230469 442.050781 C 432.449219 442.050781 431.800781 442.4375 431.289063 443.203125 C 430.78125 443.9375 430.527344 444.761719 430.527344 445.679688 L 430.527344 457.164063 L 435.996094 457.164063 Z M 435.882813 475.910156 L 435.882813 465.632813 L 430.46875 465.632813 L 430.46875 475.910156 L 418.699219 475.910156 L 418.699219 439.632813 C 418.699219 437.800781 419.386719 436.242188 420.757813 434.960938 C 422.132813 433.675781 423.796875 433.035156 425.761719 433.035156 L 440.765625 433.035156 C 442.726563 433.035156 444.394531 433.675781 445.765625 434.960938 C 447.140625 436.242188 447.828125 437.800781 447.828125 439.632813 L 447.828125 475.910156 Z M 403.304688 444.742188 C 403.304688 443.019531 402.382813 442.160156 400.539063 442.160156 L 397.773438 442.160156 L 397.773438 466.785156 L 400.539063 466.785156 C 401.324219 466.785156 401.972656 466.53125 402.480469 466.019531 C 403.03125 465.503906 403.304688 464.898438 403.304688 464.203125 Z M 408.425781 475.910156 L 386.003906 475.910156 L 386.003906 433.035156 L 408.425781 433.035156 C 410.269531 433.035156 411.839844 433.65625 413.132813 434.902344 C 414.425781 436.113281 415.074219 437.578125 415.074219 439.300781 L 415.074219 469.644531 C 415.074219 471.367188 414.425781 472.851563 413.132813 474.097656 C 411.839844 475.308594 410.269531 475.910156 408.425781 475.910156 Z M 382.378906 475.910156 L 370.730469 475.910156 L 370.730469 445.679688 C 370.730469 444.726563 370.472656 443.898438 369.964844 443.203125 C 369.492188 442.472656 368.769531 442.105469 367.785156 442.105469 C 366.804688 442.105469 366.0625 442.472656 365.550781 443.203125 C 365.078125 443.898438 364.84375 444.726563 364.84375 445.679688 L 364.84375 475.910156 L 353.3125 475.910156 L 353.3125 442.65625 C 353.3125 439.355469 352.9375 436.148438 352.191406 433.035156 L 363.136719 433.035156 L 364.960938 438.257813 C 365.589844 436.902344 366.550781 435.710938 367.84375 434.683594 C 369.179688 433.621094 370.550781 433.089844 371.964844 433.089844 C 372.199219 433.089844 372.632813 433.070313 373.257813 433.035156 L 375.378906 433.035156 C 377.300781 433.035156 378.949219 433.675781 380.320313 434.960938 C 381.691406 436.242188 382.378906 437.800781 382.378906 439.632813 Z M 333.386719 475.910156 C 331.425781 475.910156 329.757813 475.269531 328.386719 473.988281 C 327.011719 472.703125 326.324219 471.148438 326.324219 469.316406 L 326.324219 439.632813 C 326.324219 437.800781 327.011719 436.242188 328.386719 434.960938 C 329.757813 433.675781 331.425781 433.035156 333.386719 433.035156 L 349.097656 433.035156 L 349.097656 442.050781 L 337.621094 442.050781 L 337.621094 449.964844 L 349.097656 449.964844 L 349.097656 459.035156 L 337.621094 459.035156 L 337.621094 466.730469 L 349.097656 466.730469 L 349.097656 475.910156 Z M 311.050781 475.910156 L 311.050781 433.035156 L 322.699219 433.035156 L 322.699219 475.910156 Z M 306.953125 457.164063 C 306.953125 459.585938 306.328125 462.496094 305.070313 465.90625 C 303.578125 469.863281 301.636719 473.199219 299.246094 475.910156 L 285.769531 475.910156 C 283.375 473.164063 281.433594 469.828125 279.945313 465.90625 C 278.648438 462.496094 278.003906 459.585938 278.003906 457.164063 L 278.003906 433.035156 L 289.242188 433.035156 L 289.242188 456.617188 C 289.242188 458.339844 289.613281 460.082031 290.359375 461.839844 C 291.027344 463.304688 291.734375 464.351563 292.480469 464.972656 C 293.222656 464.351563 293.929688 463.304688 294.597656 461.839844 C 295.34375 460.082031 295.714844 458.339844 295.714844 456.617188 L 295.714844 433.035156 L 306.953125 433.035156 Z M 262.433594 475.910156 L 262.433594 433.035156 L 274.085938 433.035156 L 274.085938 475.910156 Z M 258.691406 457.164063 C 258.691406 459.585938 258.0625 462.496094 256.808594 465.90625 C 255.316406 469.863281 253.375 473.199219 250.980469 475.910156 L 237.507813 475.910156 C 235.113281 473.164063 233.171875 469.828125 231.679688 465.90625 C 230.386719 462.496094 229.738281 459.585938 229.738281 457.164063 L 229.738281 433.035156 L 240.976563 433.035156 L 240.976563 456.617188 C 240.976563 458.339844 241.351563 460.082031 242.097656 461.839844 C 242.761719 463.304688 243.46875 464.351563 244.214844 464.972656 C 244.960938 464.351563 245.664063 463.304688 246.335938 461.839844 C 247.078125 460.082031 247.449219 458.339844 247.449219 456.617188 L 247.449219 433.035156 L 258.691406 433.035156 Z M 214.167969 445.679688 C 214.167969 444.761719 213.914063 443.9375 213.402344 443.203125 C 212.894531 442.4375 212.226563 442.050781 211.402344 442.050781 C 210.617188 442.050781 209.972656 442.4375 209.460938 443.203125 C 208.949219 443.9375 208.695313 444.761719 208.695313 445.679688 L 208.695313 457.164063 L 214.167969 457.164063 Z M 214.050781 475.910156 L 214.050781 465.632813 L 208.636719 465.632813 L 208.636719 475.910156 L 196.867188 475.910156 L 196.867188 439.632813 C 196.867188 437.800781 197.554688 436.242188 198.925781 434.960938 C 200.300781 433.675781 201.96875 433.035156 203.929688 433.035156 L 218.933594 433.035156 C 220.894531 433.035156 222.5625 433.675781 223.9375 434.960938 C 225.308594 436.242188 225.996094 437.800781 225.996094 439.632813 L 225.996094 475.910156 Z M 181.472656 444.742188 C 181.472656 443.019531 180.550781 442.160156 178.707031 442.160156 L 175.941406 442.160156 L 175.941406 466.785156 L 178.707031 466.785156 C 179.492188 466.785156 180.140625 466.53125 180.648438 466.019531 C 181.199219 465.503906 181.472656 464.898438 181.472656 464.203125 Z M 186.59375 475.910156 L 164.171875 475.910156 L 164.171875 433.035156 L 186.59375 433.035156 C 188.4375 433.035156 190.007813 433.65625 191.300781 434.902344 C 192.597656 436.113281 193.242188 437.578125 193.242188 439.300781 L 193.242188 469.644531 C 193.242188 471.367188 192.597656 472.851563 191.300781 474.097656 C 190.007813 475.308594 188.4375 475.910156 186.59375 475.910156 "/>
</g>
</svg>
